<svg width="306" height="50" viewBox="0 0 306 50" fill="none" xmlns="http://www.w3.org/2000/svg">
<path d="M197.581 13.0273C205.839 13.0273 211.088 17.2857 211.275 23.8418H203.407C203.34 20.6292 201.102 18.9307 197.521 18.9307C193.941 18.9307 191.951 20.5062 191.951 23.127C191.951 25.2867 193.55 26.6628 196.748 27.124L202.957 28.2383C209.165 29.2221 212.236 32.4968 212.236 37.9385C212.236 44.9481 206.665 49.0752 197.964 49.0752C188.813 49.075 183.438 44.4865 183.438 37.6768H191.245L191.259 37.9844C191.474 41.1989 193.993 43.1034 197.964 43.1035C201.8 43.1035 204.045 41.4662 204.045 38.6455C204.045 36.5472 202.769 35.2405 200.142 34.7793L193.55 33.5342C187.214 32.4197 184.016 29.2066 184.016 23.9033C184.016 17.0938 189.323 13.0275 197.581 13.0273ZM276.948 13.043C282.323 13.043 286.227 14.8802 288.081 17.5625C289.935 20.2448 290.642 22.804 290.642 25.4863V42.6494H295.123V48.4141H288.6C285.019 48.4141 283.675 47.1077 283.225 44.418L283.156 42.9805H282.706C281.234 46.6464 276.948 49.0751 271.761 49.0752C265.109 49.0752 260.882 44.9478 260.882 38.3916C260.882 31.8355 265.619 27.6466 273.231 27.6465H282.706V25.3564C282.706 21.3598 280.657 19.3995 276.565 19.3994C272.474 19.3994 270.356 21.1675 270.041 24.6416H262.233C262.811 17.2399 268.315 13.043 276.948 13.043ZM244.365 13.0352C252.811 13.0352 258.697 18.0852 259.726 25.748H251.857C251.092 21.8207 248.149 19.7227 244.117 19.7227C239.065 19.7228 235.859 23.2582 235.859 28.5V34.0723C235.859 39.3141 239.185 42.3886 244.117 42.3887C248.276 42.3887 251.219 39.9597 251.925 36.0322H259.785C258.824 44.2255 252.871 49.0684 244.17 49.0684C233.93 49.0683 227.789 42.1888 227.789 31.1133C227.789 25.418 229.26 21.0215 232.271 17.8164C235.281 14.6036 239.313 13.0352 244.365 13.0352ZM58.8818 10C64.2556 10 69.3051 12.0344 73.1064 15.7119C76.9079 19.3966 79 24.2911 79 29.5C79 34.7088 76.9078 39.6035 73.1064 43.2881C69.3051 46.9726 64.2556 49 58.8818 49C52.9527 48.9999 48.0403 47.0284 43.8711 42.9873C42.378 41.54 40.9715 39.8269 39.5 37.6455C38.0285 39.8269 36.622 41.54 35.1289 42.9873C30.9597 47.0354 26.0473 48.9999 20.1182 49C14.7444 49 9.69493 46.9656 5.89355 43.2881C2.09217 39.6035 2.30285e-05 34.7088 0 29.5C0 24.2911 2.09215 19.3966 5.89355 15.7119C9.69493 12.0274 14.7444 10 20.1182 10C26.0473 10.0001 30.9597 11.9716 35.1289 16.0127C36.622 17.46 38.0285 19.1731 39.5 21.3545C40.9715 19.1731 42.378 17.46 43.8711 16.0127C48.0403 11.9646 52.9527 10.0001 58.8818 10ZM103.624 48.4141H95.3057V0.65332H103.624V48.4141ZM130.567 13.0273C138.18 13.0273 142.279 18.5313 142.279 27.3779V48.4062H134.283V28.2305C134.283 22.6584 131.979 19.9142 127.31 19.9141C122.13 19.9141 118.796 24.0418 118.796 30.1367V48.4141H110.86V13.6885H117.835L118.796 20.1064H119.307C121.416 15.5872 125.515 13.0274 130.567 13.0273ZM166.67 6.4873H158.029V13.6963H179.657V48.4141H171.723V20.3066H158.029V48.4141H150.094V20.3066H143.63V13.6885H150.094V7.00977C150.094 5.24198 150.289 4.05819 151.055 2.49023C151.888 0.914649 153.938 0 156.94 0H166.67V6.4873ZM223.885 48.4141H216.018V13.6885H223.885V48.4141ZM306 48.4141H298.132V0H306V48.4141ZM274.523 32.8271C270.943 32.8271 268.893 34.5331 268.893 36.9541V38.5303L268.885 38.5225C268.885 41.3355 270.995 42.7803 274.328 42.7803C279.448 42.7802 282.714 39.375 282.714 34.333V32.8271H274.523ZM58.875 18.2646C55.2251 18.2646 52.4478 19.3693 49.8799 21.8584C47.918 23.7601 46.3022 26.2069 44.3691 29.5068C46.3023 32.8069 47.9179 35.2545 49.8799 37.1562C52.4478 39.6383 55.2179 40.75 58.875 40.75C60.4042 40.75 61.8974 40.456 63.3184 39.8896C64.7321 39.3303 66.002 38.5058 67.084 37.457C68.166 36.4013 69.0095 35.177 69.5938 33.8066C70.1852 32.4294 70.4814 30.9821 70.4814 29.5L70.4736 29.5068C70.4736 28.0246 70.1712 26.5774 69.5869 25.207C69.0026 23.8366 68.1582 22.6064 67.0762 21.5576C65.9943 20.5089 64.7252 19.6835 63.3115 19.1172C61.8977 18.5509 60.4042 18.2647 58.875 18.2646ZM20.1182 18.2568C17.0669 18.2568 14.08 19.4602 11.916 21.5508C9.72341 23.6692 8.51855 26.5007 8.51855 29.5C8.51858 32.4993 9.72343 35.3238 11.916 37.4492C14.1016 39.5747 17.0164 40.7432 20.1182 40.7432C23.768 40.7431 26.5454 39.6384 29.1133 37.1494C31.0753 35.2477 32.6909 32.8001 34.624 29.5C32.6909 26.1999 31.0753 23.7523 29.1133 21.8506C26.5526 19.3686 23.7752 18.2569 20.1182 18.2568ZM179.657 8.77734H171.723V0H179.657V8.77734ZM223.885 8.77734H216.018V0H223.885V8.77734Z" fill="black"/>
</svg>
