<svg width="378" height="600" viewBox="0 0 378 600" fill="none" xmlns="http://www.w3.org/2000/svg">
<g clip-path="url(#clip0_118_2691)">
<path d="M52.51 256.81C52.51 256.81 45.39 236.73 45.92 222.75C46.45 208.77 47.9 204.03 47.9 204.03L41.62 196.12C41.62 196.12 43.11 195.5 44.7 196.12C46.29 196.74 47.26 197.14 47.26 197.14C47.26 197.14 48.2 188.87 50.89 181.48C53.58 174.09 56.94 166.32 56.94 166.32C56.94 166.32 31.36 134.25 29.44 127.61C27.52 120.97 32.24 107.9 32.44 88.67C32.64 69.44 24.52 46.3 19.6 36.25C14.68 26.2 8.47 10.37 8.47 10.37C8.47 10.37 31.4 26.51 49.98 53.59C68.56 80.67 76.51 104.73 78.01 112.64C79.51 120.55 80.36 129.13 80.36 129.13C80.36 129.13 86.49 122.44 89.65 119.25C92.81 116.06 95.75 112.27 95.75 112.27C95.75 112.27 93.02 119.98 91.98 125.61C90.94 131.24 90.47 138.92 90.47 138.92C90.47 138.92 93.96 135.92 98.65 134.78C103.34 133.64 107.2 133.01 107.2 133.01C107.2 133.01 118.91 115.02 128.26 103C137.61 90.98 149.09 78.96 149.09 78.96C149.09 78.96 145.35 97.39 142.55 107.54C139.75 117.69 138.01 132.13 138.14 131.32C138.27 130.51 144.61 131.91 146.56 131.98C148.51 132.05 150.83 133.13 150.83 133.13C150.83 133.13 156.58 125.51 166.72 122.13C176.86 118.75 183.15 119.04 183.15 119.04C183.15 119.04 178.13 123.87 175.61 128.51C173.09 133.15 169.23 137.98 169.23 137.98C169.23 137.98 175.99 139.72 181.12 142.23C186.25 144.74 192.68 149.28 192.68 149.28C192.68 149.28 195.75 128.67 194.94 117.87C194.13 107.07 196.2 105.02 204.7 99.8C213.2 94.58 241.29 69.28 252.49 57.33C263.69 45.38 275.77 27.16 279.69 20.35C279.69 20.35 282.11 42.2 269.42 78.26C256.73 114.32 246.34 131.77 233.08 148.45C219.82 165.13 215.3 167.94 215.3 167.94C215.3 167.94 232.52 189.29 241.54 205.71C250.56 222.13 277.83 281.26 287.88 312.34C297.93 343.42 325.15 440.06 327.84 463.85C330.53 487.64 341.96 544.7 344.13 558.2C344.13 558.2 326.64 478.31 311.18 439.78C295.72 401.25 274.22 330.09 249.81 282.67C225.4 235.25 215.01 221.3 215.01 221.3C215.01 221.3 213.39 229.6 210.77 236.81C208.15 244.02 205.45 248.19 205.45 248.19C205.45 248.19 212.37 246.63 214.01 245.65C215.65 244.67 213.57 251.78 210.77 255.93C207.97 260.08 202.92 265.49 202.92 265.49C202.92 265.49 202.92 283.01 187.01 293.81C171.1 304.61 164.96 305.77 162.12 309.72C159.28 313.67 157.58 317.93 159.05 336.27C160.52 354.61 167.2 382.9 167.2 382.9L156.41 383.08C156.41 383.08 154.86 390.33 148.66 396.81C142.46 403.29 137.62 406.57 137.62 406.57C137.62 406.57 139.99 413.05 143.18 417.88C146.37 422.71 146.83 423.9 146.83 423.9C146.83 423.9 138.28 422.08 132.52 417.15C126.76 412.22 125.58 410.58 125.58 410.58C125.58 410.58 115 412.77 106.88 408.94C98.76 405.11 89.55 396.81 89.55 396.81C89.55 396.81 89.09 403.83 85.9 406.57C82.71 409.31 77.23 411.95 77.23 411.95C77.23 411.95 77.23 417.88 79.33 422.17C81.43 426.46 84.17 429.1 84.17 429.1C84.17 429.1 75.23 425.27 71.49 420.71C67.75 416.15 65.56 412.77 65.56 412.77C65.56 412.77 49.69 410.31 44.58 398.81C39.47 387.31 39.84 378.28 39.84 378.28C39.84 378.28 30.72 366.15 35.28 356.57C39.84 346.99 49.79 345.71 53.62 346.99C57.45 348.27 63.84 351.28 63.84 351.28C63.84 351.28 69.59 344.62 75.61 331.12C81.63 317.62 84.7 305.49 83.44 302.25C82.18 299.01 75.96 289.63 71.08 287.37C66.2 285.11 58.52 281.89 51.34 271.18C44.16 260.47 43.04 251.11 43.04 251.11C43.04 251.11 46.42 255.46 48.7 256.13C50.98 256.8 52.54 256.77 52.54 256.77L52.51 256.81Z" fill="#ADD63D"/>
<path d="M167.2 382.94C167.2 382.94 160.59 349.3 159.05 336.31C157.51 323.32 157.81 309.31 165.49 305.87C173.17 302.43 192.85 293.32 197.51 285.21C202.17 277.1 202.91 265.52 202.91 265.52C202.91 265.52 208.03 261.43 210.76 255.96C213.49 250.49 214 245.68 214 245.68L205.44 248.22C205.44 248.22 210.36 238.57 212.34 231.98C214.32 225.39 214.99 221.32 214.99 221.32C214.99 221.32 238.33 257.8 250.6 284.29C262.87 310.78 286.79 367.25 301.95 411.75C317.11 456.25 332.34 507.48 338.22 532.85C344.1 558.22 346.81 568.69 348.34 579.62C349.87 590.55 350.82 596.9 350.82 596.9H146.4C146.4 596.9 148.45 585.23 149.26 577.29C150.07 569.35 150.86 558.22 150.86 558.22C150.86 558.22 242.6 557.01 248.61 557.01C254.62 557.01 260.4 556.22 260.66 544.93C260.92 533.64 260.6 396.04 260.6 392.23C260.6 388.42 258.38 382.99 249.48 382.95C240.58 382.91 167.19 382.95 167.19 382.95L167.2 382.94Z" fill="#E5F234"/>
<path d="M139.9 266.29C139.9 266.29 138.7 255.81 138.7 252.56V245.57C138.7 245.57 152.81 240.57 161.66 231.8C170.51 223.03 178.7 209.54 178.7 209.54C178.7 209.54 183.64 215.68 183.4 224.96C183.16 234.24 181.35 248.69 170.03 254.48C158.71 260.27 150.27 260.07 146.9 261.97C143.53 263.87 141.84 266.32 141.48 267.21C141.12 268.1 139.91 266.29 139.91 266.29H139.9Z" fill="white"/>
<path d="M55.84 221.33C55.84 221.33 54.71 235.46 59.38 247.24C64.05 259.02 69.99 261.56 76.21 263.4C82.43 265.24 86.53 265.95 87.95 268.07C89.37 270.19 90.5 273.44 90.5 273.44C90.5 273.44 91.63 262.41 91.35 251.38C91.07 240.35 90.5 239.22 90.5 239.22C90.5 239.22 81.31 247.2 70.98 240.17C60.65 233.14 60.23 227.34 59.38 225.93C58.53 224.52 55.84 221.34 55.84 221.34V221.33Z" fill="white"/>
<path d="M239.77 202.63C239.77 202.63 252.91 204.91 259.85 208.5C266.79 212.09 274.59 218.86 278.26 226.09C281.93 233.32 282.43 236.9 282.43 236.9C282.43 236.9 276.92 227.04 268.65 225.5C260.38 223.96 256.91 223.83 255.31 224.5C253.71 225.17 252.51 226.09 252.51 226.09L239.77 202.64V202.63Z" fill="#30993A"/>
<path d="M303.74 356.09C303.74 356.09 313.8 365.8 324.37 376.87C334.94 387.94 339.07 401.17 340.23 409.12C341.39 417.07 341.08 419.63 341.08 419.63C341.08 419.63 338.82 405.78 329.49 396.74C320.16 387.7 310.97 385.45 310.97 385.45L303.74 356.09V356.09Z" fill="#30993A"/>
<path d="M339.29 519.97C339.29 519.97 352.44 527.4 361.59 544.85C370.74 562.3 370.17 575.88 370.17 575.88C370.17 575.88 367.02 561.87 359.02 554.58C351.02 547.29 342.72 545.29 342.72 545.29L339.29 519.98V519.97Z" fill="#30993A"/>
<path d="M38.44 383.12H10.8C6.94001 383.12 3.82001 386.25 3.82001 390.1V548.14C3.82001 552.7 7.52001 556.4 12.08 556.4H250.98C255.57 556.4 259.31 552.7 259.35 548.1L260.63 390.73C260.66 386.54 257.27 383.12 253.08 383.12H156.42C156.42 383.12 155.19 391.65 146.41 399.13L137.63 406.61C137.63 406.61 140.2 415.72 143.52 419.83C146.84 423.94 148.03 426.34 148.03 426.34C148.03 426.34 137.22 421.39 132.54 417.19C127.86 412.99 125.6 410.62 125.6 410.62C125.6 410.62 109.78 414.06 100.47 406.14C91.16 398.22 89.57 396.85 89.57 396.85C89.57 396.85 87.97 408.97 82.61 410.48L77.25 411.99C77.25 411.99 77.09 417.58 79.35 422.21C81.61 426.84 84.19 429.14 84.19 429.14C84.19 429.14 77.44 428.68 71.51 420.75L65.58 412.81C65.58 412.81 50.74 411.15 45.9 401.8C41.06 392.45 38.48 383.12 38.48 383.12H38.44Z" fill="#E6FFFF"/>
<path d="M133.29 514.89C154.509 514.89 171.71 497.689 171.71 476.47C171.71 455.251 154.509 438.05 133.29 438.05C112.071 438.05 94.87 455.251 94.87 476.47C94.87 497.689 112.071 514.89 133.29 514.89Z" fill="#63ED4A"/>
<path d="M209.1 173.6C209.1 173.6 234.52 202.63 257.89 254.45C277.4 297.7 296.34 361.95 305.17 398.01C314 434.07 315.41 443.46 315.41 443.46L336.65 522.52C336.65 522.52 317.94 400.97 304.96 361.03C291.98 321.09 275.55 269.28 260.87 241.86C246.19 214.44 228.76 184.08 222.6 175.98C216.44 167.88 215.74 167.3 215.74 167.3L209.09 173.58L209.1 173.6Z" fill="#30993A"/>
<path d="M191.01 157.59C191.01 157.59 187.12 153.53 179.33 149.44C172.09 145.63 166.19 143.41 166.19 143.41L170.37 138.29C170.37 138.29 182.39 142.28 187.53 144.93C192.67 147.58 193.3 148.46 193.3 148.46L191.01 157.59V157.59Z" fill="#30993A"/>
<path d="M91.35 145.17C95.13 143.08 99.36 141.26 104.15 139.96C105.28 137.55 106.63 135 107.83 132.81C106.01 133.12 104.37 133.46 102.99 133.81C98.77 134.88 94.99 136.16 91.14 137.91L91.35 145.17V145.17Z" fill="#30993A"/>
<path d="M149.82 133.39C149.93 133.27 150.07 133.16 150.22 133.04C146.52 132.2 142.45 131.66 138.27 131.36C138.06 133.31 137.83 135.53 137.62 137.53C140.48 137.7 143.29 137.97 146.04 138.32C147.04 136.79 148.19 135.14 149.81 133.39H149.82Z" fill="#30993A"/>
<path d="M47.9 198.94C48.54 199.3 49.3 199.81 50.12 200.42C50.92 196.53 51.92 192.74 53.14 189.3C55.42 182.9 57.94 177.69 61.06 173.01C60.72 172.08 60.42 171.48 60.01 170.88L57.46 167.33C54.76 172.02 52.9 176.24 51.92 178.74C50.28 182.92 48.65 190.29 47.52 198.59L47.91 198.94H47.9Z" fill="#30993A"/>
<path d="M123.93 231.98C123.93 231.98 128.46 238.41 138.69 235.48C148.92 232.55 155.47 224.74 164.65 213.8C173.83 202.86 180.66 196.81 185.64 193.78C190.62 190.75 197.09 188.75 197.09 188.75C197.09 188.75 186.32 197.52 178.51 208.49C170.7 219.46 161.21 233.36 153.75 239.01C146.29 244.66 141.89 245.82 136.52 244.65C131.15 243.48 127.25 241.33 125.69 238.5C124.13 235.67 123.93 231.97 123.93 231.97V231.98Z" fill="#30993A"/>
<path d="M93.48 234.12C93.48 234.12 87.99 237.47 81.25 236.5C74.51 235.53 70.71 229.96 67.63 224.67C63.67 217.87 57.37 205.97 50.11 200.42C45.74 197.08 41.61 196.12 41.61 196.12C41.61 196.12 56.62 213.06 61.05 226.07C65.48 239.08 70.42 244.22 77.2 243.96C83.98 243.7 87.28 242.2 89.18 240.15C91.08 238.1 93.48 234.12 93.48 234.12V234.12Z" fill="#30993A"/>
<path d="M138.75 276.15C138.75 276.15 134.81 270.58 131.81 262.76C128.81 254.94 127.81 244.85 128.17 242.03C128.53 239.21 137.26 245.22 137.63 245.07C138 244.92 138.16 255.04 139.34 261.05C140.52 267.06 138.75 276.15 138.75 276.15V276.15Z" fill="#30993A"/>
<path d="M183.7 239.82C187.57 231.26 189.28 224.74 190.46 216.85C191.64 208.96 192.75 192.59 192.75 192.59C192.75 192.59 184.83 199.42 184.38 205.26C183.93 211.1 185.64 218.4 185.64 223.65C185.64 228.9 183.7 239.82 183.7 239.82V239.82Z" fill="#30993A"/>
<path d="M195.35 253.07C195.35 253.07 201.93 244.14 207.07 231.22C212.21 218.3 213.83 208.67 215.01 201.46C215.01 201.46 216.19 212.57 214.04 223.79C211.89 235.01 205.78 249.96 205.78 249.96L195.35 253.06V253.07Z" fill="#30993A"/>
<path d="M140.77 294.62C140.77 294.62 144.8 292.03 155.8 292.1C166.8 292.17 176.34 292.87 184.33 288.98C192.32 285.09 196.62 280.43 200.4 272.28C204.18 264.13 190.34 280.74 181.48 283.05C172.62 285.36 162.45 285.57 157.06 286.42C151.67 287.27 147.78 287.94 145.21 289.72C142.64 291.5 140.76 294.63 140.76 294.63L140.77 294.62Z" fill="#30993A"/>
<path d="M81.25 287.84C85.27 289.15 87.63 292.02 87.63 292.02L84.44 302.59C84.44 302.59 80.47 293.77 75.32 290.7C70.17 287.63 68.38 286.29 68.38 286.29C68.38 286.29 72.28 286.73 75.01 286.99C77.74 287.25 81.24 287.85 81.24 287.85L81.25 287.84Z" fill="#30993A"/>
<path d="M60.62 255.5C55.52 248.94 53.05 242.72 50.95 232.58C48.85 222.44 48.48 206.68 48.48 206.68L56.6 218.56C56.6 218.56 53.78 227.38 55.72 236.15C57.66 244.92 60.62 255.51 60.62 255.51V255.5Z" fill="#30993A"/>
<path d="M147.91 180.56C147.91 180.56 156.73 167.42 164.38 159.05C172.03 150.68 176.25 147.71 179.33 149.44C182.41 151.17 182.02 145.09 176.3 143.41C170.58 141.73 167.52 141.79 167.52 141.79C167.52 141.79 161.64 150.37 158.47 157.59C155.3 164.81 147.92 180.55 147.92 180.55L147.91 180.56Z" fill="#30993A"/>
<path d="M120.72 214.72C120.72 214.72 127.62 209.07 132.93 196.12C137.77 184.32 139.04 175.66 140.78 163.37C142.52 151.08 142.27 143.24 146.04 138.32C149.81 133.4 138.69 132.81 138.69 132.81C138.69 132.81 136.23 152.3 133.77 167.83C131.31 183.36 130.07 194.06 127.59 200.14C125.11 206.22 120.72 214.72 120.72 214.72V214.72Z" fill="#30993A"/>
<path d="M91.42 147.31C92.23 151.71 94.89 157.79 94.89 157.79L103.05 138.32L90.46 141.18L91.42 147.31V147.31Z" fill="#30993A"/>
<path d="M94.44 211.75C94.44 211.75 89.48 202.56 88.29 190.76C87.1 178.96 88.64 169.71 89.65 164.02C90.66 158.33 93.49 150.86 93.49 150.86L97.45 152.47C97.45 152.47 91.59 170.63 91.59 181.75C91.59 192.87 91.46 199.91 92.03 202.72C92.6 205.53 94.43 211.74 94.43 211.74L94.44 211.75Z" fill="#30993A"/>
<path d="M209.1 173.6C206.93 175.84 204.99 177.24 204.99 177.24C204.99 177.24 223.54 154.02 232.28 142.04C241.65 129.21 253.55 107.54 258.71 94.01C263.87 80.48 278.32 28.42 278.32 28.42C278.32 28.42 277.89 48.41 270.49 75.13C263.09 101.85 250.74 122.23 243.22 134.54C235.7 146.85 226.36 156.15 221.99 161.56C217.62 166.97 213.41 170.12 212.15 171.35C210.89 172.58 209.11 173.59 209.11 173.59L209.1 173.6Z" fill="#30993A"/>
<path d="M221.09 137.53C221.09 137.53 229.91 122.95 239.19 108.44C248.47 93.93 259.17 78.28 259.17 78.28C259.17 78.28 251.55 100.57 244.63 112.18C237.71 123.79 229.6 129.78 227.56 132.23C225.52 134.68 221.09 137.53 221.09 137.53V137.53Z" fill="#30993A"/>
<path d="M12.63 15.82C12.63 15.82 35.12 38.31 49.73 64.03C64.34 89.75 68.68 107.83 70.94 120.17C73.2 132.51 73.2 146.07 73.2 146.07L81.02 129.13C81.02 129.13 76.35 94.98 60.87 71.1C45.39 47.22 31.18 30.09 25.1 24.49C19.02 18.89 12.63 15.82 12.63 15.82Z" fill="#30993A"/>
<path d="M123.93 284.38C123.93 284.38 123.94 302.84 125.56 316.38C127.18 329.92 131.07 339.68 133.92 344.73C133.92 344.73 123.82 345.04 122.47 334.79C121.12 324.54 122.63 309.74 122.47 301.25C122.31 292.76 123.93 284.38 123.93 284.38Z" fill="#30993A"/>
<path d="M151.64 301.25C151.64 301.25 150.56 306.94 150.72 317.29C150.72 317.29 151.67 310.74 155.9 307.19C160.13 303.64 165.62 301.88 169.57 300.32C173.52 298.76 165.85 306.48 162.7 310.7C159.55 314.92 158.01 317.2 158.42 328.92C158.83 340.64 161.77 358.55 163.3 368.55C164.83 378.55 167.2 382.93 167.2 382.93L154.62 383.11C154.62 383.11 159.59 373.2 156.4 362.66C153.21 352.12 149.72 345.16 146.39 343.13C143.06 341.1 144.48 334.91 145.35 325.82C146.22 316.73 146.84 310.36 148.1 307.56C149.36 304.76 151.63 301.24 151.63 301.24L151.64 301.25Z" fill="#30993A"/>
<path d="M151.64 301.25C151.64 301.25 145.65 305.2 142.16 314.55C138.67 323.9 136.28 338.05 136.28 338.05C136.28 338.05 138.29 338.55 140.76 340.05C143.23 341.55 144.07 341.85 144.07 341.85C144.07 341.85 144.29 319.6 146.2 313.58C148.11 307.56 149.83 303.89 149.83 303.89L151.64 301.24V301.25Z" fill="#30993A"/>
<path d="M136.29 338.05C136.29 338.05 146.8 343.39 150.34 358.27C153.66 372.2 150.78 385.28 141.09 394.37C132.34 402.58 118.75 405.25 109.59 403.11C100.43 400.97 92.16 396.99 85.44 386.71C85.44 386.71 90.43 399.86 102.37 406.5C114.31 413.14 127.38 408.13 127.38 408.13C127.38 408.13 132.66 407.66 134.88 406.19C137.1 404.72 150.67 398.12 153.31 390.61C155.95 383.1 159.22 374.68 156.79 364.09C154.36 353.5 150.97 349.72 146.69 344.73C142.41 339.74 140.16 338.97 138.81 338.49C137.46 338.01 136.29 338.06 136.29 338.06V338.05Z" fill="#30993A"/>
<path d="M128.15 410.8C128.15 410.8 132.71 410.8 136.61 408.29C140.51 405.78 137.23 403.62 134.56 403.93C131.89 404.24 124.72 406.75 124.72 406.75L128.15 410.8Z" fill="#30993A"/>
<path d="M46.08 383.12C46.08 383.12 45.4 386.83 47.29 393.57C49.18 400.31 55.54 405.38 62.82 407.13C70.1 408.88 77.36 407.58 81.3 402.96C85.24 398.34 86.1 393.12 85.44 386.72C85.44 386.72 89.91 392.72 87.36 400.92C84.81 409.12 77.31 413.81 75.03 413.99C72.75 414.17 66.57 414.3 66.35 413.99C66.13 413.68 48.66 408.26 45.23 400.55C41.8 392.84 38.85 384.78 39.06 381.68C39.27 378.58 40.56 378.66 40.56 378.66L46.77 382.75" fill="#30993A"/>
<path d="M60.91 386.77C60.91 386.77 50.31 388.69 44.99 387.23C39.67 385.77 39.12 380.98 39.12 380.98L42.11 379.68C42.11 379.68 50.31 384.35 53.31 385.41C56.31 386.47 60.9 386.77 60.9 386.77H60.91Z" fill="#30993A"/>
<path d="M122.59 383.12C122.59 383.12 130.98 382.75 138.75 377.45C145.36 372.94 147.39 366.74 147.39 361.28C147.39 354.19 143.91 348.55 137.95 344.73C131.99 340.91 131.23 345.14 131.23 345.14C131.23 345.14 141.67 347.09 142.77 354.52C143.87 361.95 143.09 365.91 139.21 370.41C135.33 374.91 131.78 378.16 129.56 379.42C127.34 380.68 122.57 383.12 122.57 383.12H122.59Z" fill="#30993A"/>
<path d="M132.11 362.67C134.1 369.3 126.98 371.3 120.85 372.66C114.72 374.02 110.28 376.08 110.28 376.08C110.28 376.08 115.03 371.23 121.28 367.35C127.53 363.47 132.11 362.67 132.11 362.67Z" fill="#30993A"/>
<path d="M61.25 376.88C61.25 376.88 57.8 375.75 53.01 375.13C48.22 374.51 45.06 374.21 43.36 372.06C41.85 370.16 42.02 367.42 43.36 365.81C44.7 364.2 47.82 366.54 53.12 370.92C58.42 375.3 61.25 376.88 61.25 376.88Z" fill="#30993A"/>
<path d="M190.68 159.35C190.68 159.35 197.27 149.45 200.57 135.96C203.87 122.47 203.73 114.64 214.99 104.35C226.25 94.06 236 86.09 250.28 69.89C264.56 53.69 272.89 39 278.33 28.42C283.77 17.84 266.7 43.24 252.98 56.83C239.26 70.42 209.45 95.59 203.15 100.79C196.85 105.99 195.39 110.24 195.06 120.42C194.73 130.6 193.98 136.96 193.47 143.42C192.96 149.88 190.69 159.36 190.69 159.36L190.68 159.35Z" fill="#EBFFAB"/>
<path d="M94.44 211.75C94.44 211.75 94.38 180.96 104.45 155.22C114.52 129.48 146.83 83.26 146.83 83.26C146.83 83.26 128.29 97.73 115.02 121.34C101.75 144.95 92.5 163.02 92.04 175.67C91.58 188.32 92.78 198.15 92.65 201.47C92.52 204.79 94.43 211.75 94.43 211.75H94.44Z" fill="#EBFFAB"/>
<path d="M147.91 180.56C147.91 180.56 150.99 157.98 158.23 144.58C165.47 131.18 174.6 123.46 179.04 120.79C183.48 118.12 174.07 128.83 168.3 138.61C162.53 148.39 158.52 155.28 155.98 161.18C153.44 167.08 147.91 180.56 147.91 180.56Z" fill="#EBFFAB"/>
<path d="M91.94 118.93C91.94 118.93 85.2 128.78 79.57 146.98C73.94 165.18 75.08 178.72 75.56 183.87C76.04 189.02 77.98 198.6 77.98 198.6C77.98 198.6 69.99 181.45 70.59 166.01C71.19 150.57 73.71 141.41 79.32 132.8C84.93 124.19 91.94 116.36 91.94 116.36V118.92V118.93Z" fill="#EBFFAB"/>
<path d="M92.6 238.71C92.6 238.71 97.22 252.29 94.47 280.54C91.72 308.79 81.58 337.66 77.8 347.39C74.92 354.79 72.59 359.67 72.59 359.67C72.59 359.67 72.28 359.2 69.44 357.2C66.6 355.2 62.74 351.67 62.74 351.67C62.74 351.67 69.32 347.67 73.55 339.07C77.78 330.47 85.32 305.49 87.63 294.95C89.94 284.41 92.93 264.11 92.65 255.49C92.37 246.87 92.6 238.7 92.6 238.7V238.71Z" fill="#EBFFAB"/>
<path d="M103.71 359.12C99.5 362.43 95.34 366.85 95.34 366.85C95.34 366.85 109.25 356.96 119.87 352.43C129.08 348.5 136.82 347.78 139.94 352.26C142.73 356.26 143.1 351 139.94 348.51C136.78 346.02 130.02 341.66 121.63 345.56C113.24 349.46 108.05 354.08 106.42 356.1C104.79 358.12 103.71 359.13 103.71 359.13V359.12Z" fill="#EBFFAB"/>
<path d="M46.52 380.38C41.94 376.81 38.33 372.56 37.92 365.8C37.51 359.04 40.8 354.83 45.66 352.33C50.52 349.83 58.18 349.83 64.23 353.61C68.87 356.51 58.18 346.1 51.02 346.63C43.86 347.16 38.88 350.19 36.04 355.15C33.2 360.11 32.46 363.89 34.28 369.08C36.1 374.27 37.94 376.47 40.89 378.64C43.84 380.81 46.52 380.37 46.52 380.37V380.38Z" fill="#EBFFAB"/>
<path d="M45.15 255.5C45.15 255.5 48.12 263.94 57.64 271.67C67.16 279.4 75.62 280.92 81.26 281.61C81.26 281.61 68.65 284.92 60.63 279.34C52.61 273.76 48.39 267.23 46.61 262.71C44.83 258.19 45.16 255.5 45.16 255.5H45.15Z" fill="#EBFFAB"/>
<path d="M161.04 283.66C172.02 281.37 181.06 276.6 191.01 269.27C201.55 261.5 211.74 248.51 211.74 248.51C211.74 248.51 208.44 259.19 199.4 268.61C190.36 278.03 180.47 283.16 172.66 284.37C164.85 285.58 161.04 283.65 161.04 283.65V283.66Z" fill="#EBFFAB"/>
<path d="M132.71 221.33C135.69 214.65 141.01 206.72 148.75 200.75C156.49 194.78 163.2 192.17 163.2 192.17C163.2 192.17 152.17 201.37 146.82 206.75C141.47 212.13 132.7 221.33 132.7 221.33H132.71Z" fill="#EBFFAB"/>
<path d="M52.76 157.49C46.61 146.55 38.16 132.68 37.97 126.06C37.78 119.44 40.58 107.91 39.67 92.96C37.78 61.75 23.88 32.63 12.62 15.82C12.62 15.82 28.63 53.87 30.84 71.99C33.05 90.11 31.22 110.21 29.16 120.23C27.1 130.25 29.31 129.31 35.81 138.32C42.31 147.33 52.75 157.49 52.75 157.49H52.76Z" fill="#EBFFAB"/>
<path d="M115.47 396.75C112.39 396.75 104.91 396.73 99.08 392.58C92.55 387.92 89.89 382.72 88.14 378.19C88.14 378.19 94.01 385.08 101.51 390.17C107.69 394.36 115.47 396.75 115.47 396.75Z" fill="#EBFFAB"/>
<path d="M213.09 235.8C213.09 235.8 234.88 269.47 252.19 309.4C269.5 349.33 289.02 397.96 301.26 436.08C313.5 474.2 334.73 544.97 340.53 596.9H350.85C350.85 596.9 329.25 489.6 312.87 444.82C296.49 400.04 272.59 334.57 257.9 302.3C243.21 270.03 216.46 222.33 216.46 222.33C216.46 222.33 213.04 229.81 212.36 232C211.68 234.19 213.09 235.82 213.09 235.82V235.8Z" fill="#B1B511"/>
<path d="M159.81 320.37C159.81 320.37 169.7 321.92 193.18 321.3C216.66 320.68 243.87 314.47 248.01 313.13C252.15 311.79 252.16 309.25 250.41 305.36C248.66 301.47 253.19 304.77 255.67 310.71C258.15 316.65 257.96 319.73 237.88 323.26C217.8 326.79 188.91 327.27 177.64 327.82C166.37 328.37 159.05 326.27 159.05 326.27L159.81 320.37V320.37Z" fill="#B1B511"/>
<path d="M261.44 405.91C265.67 405.76 276.13 405.33 281.51 404.52C286.89 403.71 290.12 403.73 288.79 400.14C287.46 396.55 290.68 396.87 292.07 401.06C293.46 405.25 296.81 407.43 289.88 408.67C282.95 409.91 260.65 411.73 260.65 411.73L261.43 405.9L261.44 405.91Z" fill="#B1B511"/>
<path d="M260.78 508.93C260.78 508.93 272.96 508.5 291.41 506.82C309.86 505.14 316.92 503.72 318.52 503.4C320.12 503.08 320.82 501.9 319.93 498.67C319.04 495.44 323.37 499.92 323.89 503.8C324.41 507.68 323.94 509.27 316.4 510.36C308.86 511.45 260.11 515.24 260.11 515.24L260.78 509.57V508.93Z" fill="#B1B511"/>
<path d="M177.64 382.94C177.44 377.3 175.61 356.17 176.29 340.06C176.97 323.95 177.44 316.6 190.08 305.79C202.72 294.98 207.18 286.55 209.09 278.35C211 270.15 210.77 266.65 210.77 266.65C210.77 266.65 217.42 260.1 222.14 250.7C226.86 241.3 216.64 227.28 216.64 227.28L215.32 224.83L205.33 249.23L215.32 245.87C215.32 245.87 207.99 259.32 206.55 261.43C205.11 263.54 203.9 265.29 203.52 269.11C203.14 272.93 198.97 286.78 185.68 295.49C172.39 304.2 165.38 307.52 161.84 311.88C158.3 316.24 157.11 323.98 159.13 337.12C161.15 350.26 167.18 382.97 167.18 382.97H177.62L177.64 382.94Z" fill="#B1B511"/>
<path d="M150.28 565.92H257.19C263.95 565.92 269.42 560.44 269.42 553.69V401.39C269.42 396.59 265.53 392.7 260.73 392.7H260.6V549.45C260.61 553.28 257.5 556.37 253.67 556.35L151.3 555.73L150.26 565.92H150.28Z" fill="#B1B511"/>
<path d="M140.35 247.23C140.35 247.23 153.1 247.48 162.17 242.28C170.41 237.56 173.39 232.31 174.83 230.31C177 227.27 182.38 233.27 177.65 242.98C172.92 252.69 185.03 241.37 183.33 226.81C181.63 212.25 179.21 208.49 179.21 208.49C179.21 208.49 170.05 226.57 159.47 234.59C148.89 242.61 138.71 244.26 138.71 244.26L140.37 247.24L140.35 247.23Z" fill="#DBDBDB"/>
<path d="M63.05 253C61.76 250.78 60.35 246.57 60.62 243.22C60.89 239.87 62.62 238.15 63.82 237.84C65.02 237.53 55.94 224.81 55.94 224.81C55.94 224.81 53.7 231.54 56.95 241.4C60.2 251.26 63.32 256.16 63.18 254.58L63.05 253V253Z" fill="#DBDBDB"/>
<path d="M68.39 244.4C71.68 246.87 78.84 248.86 84.17 248.86C89.5 248.86 92.04 247.39 92.04 247.39L91.38 239.86C91.38 239.86 84.49 245.6 78.01 245.36C71.53 245.12 68.39 244.41 68.39 244.41V244.4Z" fill="#DBDBDB"/>
<path d="M171.36 471.24L254.54 394.37L169.56 463.75L171.36 471.24Z" fill="#B6D8D6"/>
<path d="M11.55 395.26L95.03 473.03L97.24 465.84L11.55 395.26Z" fill="#B6D8D6"/>
<path d="M5.95 550.56H251.05C252.98 550.56 254.54 549 254.54 547.07V384.54C254.54 384.54 260.49 383.66 260.61 392.71C260.73 401.76 260.62 549.46 260.62 549.46C260.62 549.46 260.49 556.48 246.84 557.43C233.19 558.38 9.93 556.4 9.93 556.4C9.93 556.4 5.95 556.76 5.95 553.66V550.56V550.56Z" fill="#B6D8D6"/>
<path d="M86.87 431.77C86.87 431.77 85.48 422.85 85.44 420.3L85.39 417.74C85.39 417.74 88.17 417.18 92.51 414.63C96.85 412.08 100.07 407.36 100.07 407.36L90.51 397.69C90.51 397.69 91.18 405.94 83.73 409.12C76.28 412.3 76.03 412.29 76.17 412.96C76.31 413.63 76.75 418.57 79.83 423.18C82.91 427.79 86.88 431.77 86.88 431.77H86.87Z" fill="#B6D8D6"/>
<path d="M96.67 408.63C96.67 408.63 100.73 413.29 113.11 415.68C124.14 417.81 131.5 415.97 131.5 415.97L126.27 411.33C126.27 411.33 112.77 412.87 107.17 409.95C101.57 407.03 96.67 405.1 96.67 405.1V408.63V408.63Z" fill="#B6D8D6"/>
<path d="M152.24 428.63C152.24 428.63 149.92 420.26 148.77 415.31L147.62 410.35C147.62 410.35 156.21 405.95 161.9 398.81C167.59 391.67 169.58 384.51 169.58 384.51H156.43C156.43 384.51 152.39 395.01 147.41 399.87C142.43 404.73 137.64 406.61 137.64 406.61C137.64 406.61 141.01 415.42 144.32 419.64C147.63 423.86 152.25 428.63 152.25 428.63H152.24Z" fill="#B6D8D6"/>
<path d="M11.55 539.42V416.1C11.55 415.02 12.4 414.13 13.48 414.08C14.63 414.03 15.59 414.95 15.59 416.1V539.42C15.59 540.54 14.69 541.44 13.57 541.44C12.45 541.44 11.55 540.54 11.55 539.42Z" fill="white"/>
<path d="M123.93 231.98C127.22 240.34 134.75 242.94 142.9 240.24C154.4 236.91 161.76 225.18 169.49 216.12C177.79 206.1 185.95 195.02 197.52 188.51C188.13 197.83 182.14 209.25 174.85 220.09C169.83 227.53 165.18 235.33 157.73 240.99C152.88 244.67 146.85 246.9 140.78 247.21C131.84 247.78 123.19 241.46 123.94 231.99L123.93 231.98Z" fill="#0E1016"/>
<path d="M140.5 244.41C139.88 252.6 140.98 261.04 142.12 269.17L138.16 268.34C139.94 265.98 141.69 263.78 143.95 261.83C144.78 261.12 145.89 260.42 146.99 260.2C150.78 259.37 154.13 259.16 157.75 258.19C171.83 255.13 181.28 242.36 181.39 228.24C181.34 221.76 180.13 214.85 176.47 209.44C175.14 207.09 178.29 207.99 179.97 206.88C181.75 205.71 182.15 202.65 183.72 205.08C186.96 212.44 187.48 220.7 186.71 228.6C185.67 238.21 180.89 247.25 173.71 253.65C169.38 257.38 163.98 259.79 158.53 261.19C154.98 262.23 150.86 262.57 147.48 263.64C143.52 266.37 141.19 272.12 138.77 276.15C137.28 265.51 135.64 254.71 136.6 243.95C136.96 241.33 140.78 241.8 140.52 244.41H140.5Z" fill="#0E1016"/>
<path d="M153.41 239.26C153.41 239.26 154.37 243.22 158.19 246.71C162.01 250.2 164.6 251.1 164.6 251.1C164.6 251.1 165.84 245.7 165.39 239.85C164.94 234 163.21 229.92 163.21 229.92C163.21 229.92 160.44 233.46 157.91 235.64C155.38 237.82 153.4 239.27 153.4 239.27L153.41 239.26Z" fill="#0E1016"/>
<path d="M140.77 294.62C144.36 285.43 159.13 284.22 167.6 282.43C190.27 278.44 204.78 263.89 214.21 243.56C214.21 243.51 216.98 245.8 216.99 245.79C210.33 249.47 203.07 252.88 195.35 253.08C198.89 251.63 202.19 250 205.46 248.24C210.09 245.72 214.92 242.65 219.38 239.84C213.39 261.52 197.4 281.72 174.32 285.77C172.35 286.15 170.15 286.43 168.15 286.58C159.95 287.43 145.65 287.08 140.77 294.63V294.62Z" fill="#0E1016"/>
<path d="M201.59 250.35C205.75 243.1 209.71 235.32 211.86 227.21C212.93 223.12 213.61 218.84 214.13 214.54C214.61 210.23 214.94 205.87 215.01 201.47C215.97 205.78 216.45 210.2 216.59 214.64C216.96 223.62 215.55 232.82 211.84 241.03C210.66 243.69 209.37 246.27 207.86 248.75C207.03 250.13 200.99 251.3 201.59 250.35V250.35Z" fill="#0E1016"/>
<path d="M206.56 264.2C206.28 273.72 202.08 282.8 196.03 290.03C189.86 297.04 180.9 301.27 172.41 304.17C168.79 305.62 164.34 306.26 162.12 309.76C160.08 313.3 160.21 317.65 160.09 321.81C160.09 324.74 160.08 327.72 160.23 330.58C161.43 348.08 164.88 365.64 169.69 382.48C170.08 383.78 169.03 383.58 167.72 383.96C166.38 384.36 165.28 385.12 164.96 383.76C163.55 377.94 162.29 372.1 161.21 366.24C158.57 351.58 156.11 336.72 156.44 321.76C156.66 308.69 157.93 304.5 170.77 299.88C181.65 295.59 191.46 290.51 197.03 279.88C199.71 275.05 201.7 269.63 202.04 264.12C202.21 261.24 206.48 261.27 206.56 264.2V264.2Z" fill="#0E1016"/>
<path d="M93.48 234.12C93.73 240.88 87.12 247.03 80.29 247.16C69.72 247.96 62.98 241.65 59.08 232.57C53.73 220 49.86 206.15 39.65 196.52L37.97 194.82C39.9 194.78 42.07 194.65 43.97 194.93C45.31 195.12 46.55 195.35 47.79 196.08L45.87 196.91C47.36 185.87 50.93 175.28 55.66 165.22C56.66 163.22 58.31 167.64 58.09 168.11C57.18 170.08 56.32 172.11 55.47 174.13C52.3 181.59 50.09 189.43 48.33 197.33L47.94 199.09L46.42 198.16C44.68 197.08 42.32 196.9 40.29 196.75L40.92 194.98C46.76 199.2 51.29 205.08 54.89 211.23C58.48 217.39 61.42 223.92 64.44 229.98C67.3 235.49 70.71 240.54 77.29 240.96C78.23 241.08 79.27 241.13 80.25 241.18C85.58 241.41 90.11 238.18 93.47 234.11L93.48 234.12Z" fill="#0E1016"/>
<path d="M94.44 211.75C86.88 193.62 89.17 173.07 95.11 154.82C103.77 127.42 128.74 96.38 148.78 75.82L153.34 71.11C149.83 84.55 146.56 98.2 143.76 111.79C138.7 134.88 137.12 158.17 133.92 181.61C133.04 187.5 131.61 193.46 129.46 199.07C127.38 204.7 124.78 210.21 120.73 214.73C122.24 208.89 124.08 203.42 125.67 197.85C130.18 180.84 130.83 163.34 133.31 145.87C136.22 122.37 141.72 99.26 148.36 76.55L151.28 78.21C142.86 87.6 134.89 97.44 127.32 107.52C118.9 118.9 110.94 130.65 104.76 143.31C100.1 153.14 96.96 163.73 94.79 174.35C92.28 186.77 93.25 199.16 94.44 211.76V211.75Z" fill="#0E1016"/>
<path d="M169.57 136.05C175.94 138.15 182.34 140.66 188.17 144.02C189.66 144.88 191.13 145.81 192.52 146.84C193.01 147.21 192.22 151.49 191.46 150.79C191.16 150.49 190.71 150.13 190.28 149.79C187.3 147.51 184.02 145.67 180.65 144.01C176.88 142.13 172.56 140.42 168.58 139C166.65 138.32 167.62 135.42 169.58 136.04L169.57 136.05Z" fill="#0E1016"/>
<path d="M138.05 129.14C142.39 129.59 146.69 130.3 150.93 131.26C151.74 131.46 151.14 131.96 151.02 132.58C150.9 133.2 150.4 133.8 150.4 133.8C146.23 133 142.02 132.44 137.8 132.15C135.79 131.97 136.04 128.97 138.06 129.14H138.05Z" fill="#0E1016"/>
<path d="M90.91 137.05C96.16 134.38 101.68 132.69 107.38 131.36C109.08 131 109.68 133.52 107.99 133.96C105.12 134.66 102.28 135.49 99.51 136.5C96.75 137.51 93.97 138.65 91.5 140.06C89.8 140.99 90.63 137.2 90.92 137.06L90.91 137.05Z" fill="#0E1016"/>
<path d="M146.15 138.19C151.47 128.09 161.6 120.6 172.75 118.15C177.9 116.88 183.57 116.64 188.88 116.36C183.17 121.2 178.46 127.27 174.25 133.42C167.5 143.28 161.53 153.73 155.97 164.34C153.18 169.69 150.47 175.08 147.92 180.55C149.5 174.69 151.52 168.96 153.82 163.34C158.44 152.07 163.98 141.17 170.87 131.08C174.44 126 178.23 121 183.07 117.02L184.26 120.11C167.82 121.79 157.81 126.3 146.16 138.19H146.15Z" fill="#0E1016"/>
<path d="M91.42 147.31C89.53 138.42 89.26 128.97 91.62 120.13C92.39 117.16 93.35 114.29 94.6 111.43L97.2 113.33C83.34 126.58 73.01 144.8 71.93 164.2C71.01 176.11 74.51 187.14 77.99 198.6C73.14 192.07 70.27 184.26 68.95 176.25C64.5 149.31 79.41 122.62 100.24 106.34C97.16 113.67 94.33 121.71 92.99 129.54C92.04 135.38 91.71 141.34 91.43 147.3L91.42 147.31Z" fill="#0E1016"/>
<path d="M190.68 159.35C191.11 151.76 191.51 144.32 191.76 136.95C192.09 129.32 190.85 121.99 191.95 114.14C192.49 110.07 194.27 105.68 197.32 102.47C199.9 99.78 203.28 97.12 205.94 94.7L222.94 79.99C239.56 65.22 256.8 50.77 269.53 32.39C273.68 26.38 277.65 20 280.85 13.48L286.62 0.899994C284.13 25.59 280.06 50.47 273.55 74.4C272.18 79.34 270.32 85.48 268.73 90.35C262.96 108.04 254.15 124.8 242.93 139.53C238.49 145.47 233.7 151.14 228.61 156.51C223.51 161.85 218.31 167.2 211.86 171.02C216.5 165.26 221.55 160.06 226.32 154.46C241.47 136.43 254.42 116.16 262.13 93.89C263.82 89.16 265.77 83.12 267.11 78.31C273.07 57.27 277.39 35.66 280.69 14.07L284.91 15.21C283.42 18.86 281.73 22.22 279.91 25.6C274.43 35.68 267.81 45.13 260.06 53.61C244.48 70.3 227.35 84.84 210.18 99.63C207.61 101.94 203.26 105.13 201.18 107.64C199.4 109.76 198.39 112.44 197.87 115.16C196.62 122.2 197.51 129.99 196.58 137.31C195.58 144.88 193.91 152.39 190.71 159.35H190.68Z" fill="#0E1016"/>
<path d="M221.09 137.53C229.36 128.97 236.98 120.09 243.03 109.92C249.06 99.77 253.99 88.98 259.16 78.28C254.61 101.76 242.21 125.15 221.09 137.53V137.53Z" fill="#0E1016"/>
<path d="M60.12 171.02C48.94 159.62 39.65 146.97 29.61 134.77C27.41 132.29 26.31 128.5 26.28 125.38C26.2 117.69 28.85 110.66 29.17 103.06C30.06 84.92 27.59 66.47 21.66 49.31C15.83 32.44 8.18 15.87 0 0C37.22 30.27 68.76 66.02 80.62 113.63C81.83 118.44 82.77 123.33 83.24 128.36C83.37 129.78 78.14 134.2 78.2 132.66C78.27 120.6 75 108.38 71.04 96.95C58.85 61.64 33.36 32.66 4.87 9.23L7.86 6.75C18.45 26.52 28.51 47.19 32.63 69.45C34.63 80.66 35.61 92.02 34.98 103.42C34.82 107.17 34.11 111.13 33.38 114.8C32.53 120.39 30.41 126.77 33.95 131.36C39.04 138 43.93 144.83 48.81 151.63C53.07 157.78 57.2 164.07 60.11 171.02H60.12Z" fill="#0E1016"/>
<path d="M49.3 204.17C45.85 221.94 47.62 240.92 54.15 257.81L55.12 260.29L52.63 259.57C48 258.16 44.14 255.02 41.63 250.95L43.89 250.14C46.65 265.15 55.4 277.72 68.88 285.01C74.25 288.2 80.17 291.47 83.47 297.23C84.49 298.94 85.23 300.79 85.76 302.67C86.13 303.99 82.19 308.59 82.01 307.33C81.6 301.55 79.07 296.58 74.39 293.07C69.69 289.4 64.08 286.54 59.43 282.6C49.65 274.58 43.65 262.82 41.46 250.49L40.6 245.07C40.6 245.07 43.73 249.68 43.72 249.68C45.37 252.31 47.72 254.49 50.48 255.91C51.37 256.38 52.4 256.81 53.26 257.04L51.74 258.8C49.96 254.42 48.6 249.95 47.48 245.4C45.2 236.31 44.23 226.86 44.55 217.5C44.72 212.79 45.08 208.17 46.01 203.41C46.19 202.49 47.08 201.89 48 202.07C48.96 202.26 49.56 203.23 49.32 204.17H49.3Z" fill="#0E1016"/>
<path d="M59.37 221.16C56.34 230.59 57.63 245.33 63.41 253.53C66.75 258.09 71.98 260.61 77.47 261.82C80.41 262.53 83.63 262.96 86.41 264.39C88.54 265.46 90.56 267.05 91.96 269.05C92.6 269.96 88.87 277.55 89.11 275.91C89.31 274.59 89.27 273.66 89.1 272.94C88.45 269.98 85.71 267.78 82.92 266.67C77.98 264.98 72.66 264.42 67.97 261.72C63.75 259.51 60.29 255.81 58.09 251.58C53.52 241.65 51.9 230.29 54.11 219.53C54.74 217.29 56.2 218.25 57.6 219.19C58.52 219.81 59.85 219.71 59.36 221.16H59.37Z" fill="#0E1016"/>
<path d="M92.51 238.14C95.67 258.03 92.93 278.23 88.23 297.64C85.85 307.31 83.05 316.88 79.62 326.26C76.97 333.28 74.25 340.58 69.74 346.72C68.15 348.86 66.56 350.76 64.53 352.59C63.75 353.28 63.44 352.45 62.75 351.67C62.03 350.87 61.26 350.39 62.09 349.71C63.74 348.22 65.36 346.32 66.7 344.48C70.98 338.59 73.53 331.77 76.16 324.97C82.82 306.54 88.03 287.37 90.18 267.85C91.1 258.18 91.29 248.2 89.95 238.61C89.63 236.96 92.16 236.36 92.52 238.13L92.51 238.14Z" fill="#0E1016"/>
<path d="M69.41 241.41C69.41 241.41 69.04 245.47 70.17 250C71.39 254.86 75.08 257.82 75.08 257.82C75.08 257.82 78.48 255.21 79.18 251.19C79.94 246.82 79.41 244.18 79.41 244.18C79.41 244.18 74.6 243.8 73.37 243.35C72.14 242.9 69.42 241.41 69.42 241.41H69.41Z" fill="#0E1016"/>
<path d="M69.44 357.21C63.58 353.07 58.04 348.96 50.8 348.76C42.32 348.18 35.19 355.85 35.56 364.14C36.73 376.89 49.58 383.25 60.91 386.77C45.81 388.16 27.03 375.05 32.5 358.18C38.6 339.99 61.79 340.81 69.44 357.2V357.21Z" fill="#0E1016"/>
<path d="M103.71 359.12C109.74 348.5 125.26 337.31 137.58 344.5C142.98 347.63 145.85 354.16 145.29 360.18C144.26 371.87 133.37 380.55 122.59 383.13C131.05 377.83 140.28 370.34 141.5 359.89C142.24 353.34 137.81 347.13 131.2 346.41C127.95 345.91 124.74 346.95 121.7 348.08C115.05 350.55 109.44 354.83 103.71 359.13V359.12Z" fill="#0E1016"/>
<path d="M110.28 376.08C110.28 376.08 117.23 367.29 122.45 363.71C127.67 360.13 130.84 360.74 131.86 362.18C132.88 363.62 132.19 366.86 127.95 367.97C124.04 368.99 120.79 370.16 116.75 372.34C113.05 374.34 110.28 376.09 110.28 376.09V376.08Z" fill="#0E1016"/>
<path d="M61.25 376.88C59.3 373.19 53.13 367.52 48.37 365.59C43.61 363.66 42.31 366.66 42.67 368.17C43.16 370.22 45.72 370.99 50.75 372.5C56.67 374.28 61.24 376.88 61.24 376.88H61.25Z" fill="#0E1016"/>
<path d="M123.93 284.38C123.56 293.38 122.92 306.01 122.98 314.85C123.11 324.86 124.33 334.97 125.54 344.9C125.7 345.99 124.93 347.01 123.84 347.15C122.79 347.29 121.83 346.57 121.64 345.54C120.71 340.44 120.08 335.36 119.73 330.22C118.49 314.86 120.85 299.39 123.93 284.37V284.38Z" fill="#0E1016"/>
<path d="M143.62 341.89C143.21 335.24 143.71 328.69 144.43 322.08C145.36 314.87 146.28 306.7 151.64 301.24C148.35 307.79 147.79 315.12 147.17 322.34C146.69 329.5 146.57 336.89 147.48 343.96C147.54 344.42 147.46 344.81 147.29 345.12C147.29 345.12 143.69 342.73 143.64 341.88L143.62 341.89Z" fill="#0E1016"/>
<path d="M157.18 387.4C161.37 376.69 160.41 364.27 155.43 354.04C152.76 348.62 148.5 343.82 143.07 341.11C142.3 340.74 141.53 340.39 140.77 340.05C141.72 340.9 142.68 341.67 143.63 342.49C149.72 348.33 153.5 356.35 154.61 364.69C155.54 370.84 155.26 377.45 153.47 383.38C150.17 392.77 143.3 400.95 134.89 406.19C136.57 410.07 138.32 413.86 140.55 417.45C141.49 418.94 142.45 420.38 143.42 421.8C138.38 419.3 133.81 415.8 130.06 411.62C129.03 410.49 128.17 409.32 127.39 408.13C116.93 410.53 105 408.18 96.8 401.07C92.3 397.48 88.58 391.49 85.45 386.71L86.68 394.39C86.86 396.15 86.78 398.14 86.5 399.93C85.78 405.13 81.68 409.66 76.49 410.38L74.43 410.67C74.78 412.79 75.17 415.01 75.78 417.04C76.59 419.95 77.93 422.68 79.44 425.31C79.25 425.19 79.05 425.08 78.86 424.97C73.93 422.03 70.84 416.98 68.43 411.94L67.97 410.93L66.76 410.84C49.57 409.02 40.2 394.65 41.74 378.51L40.33 376.55C40.47 374.54 37.54 374.28 37.32 376.29C36.59 387.35 40.11 398.93 48.33 406.58C52.5 410.36 57.65 413.08 63.18 414.18C63.97 414.33 64.71 414.45 65.52 414.53C70.66 424.27 76.07 428.49 86.87 431.76L84.7 428.14C81.93 423.6 79.39 418.87 78.4 413.66C82.36 413.01 85.7 410.61 87.95 407.76C89.51 405.79 90.43 403.89 90.66 401.42C94.32 406.01 98.47 408.14 103.99 410.42C110.82 413.19 118.53 414.3 125.77 412.58C128.46 415.87 131.65 418.54 135.08 421.02C140.16 424.71 146.27 426.81 152.25 428.63C149.36 424.46 146.16 419.94 143.52 415.64C142.02 413.11 140.67 410.4 139.49 407.68C147.49 403.24 153.63 395.79 157.19 387.41L157.18 387.4Z" fill="#0E1016"/>
<path d="M216.62 166.67C229.07 181.17 238.86 197.71 248.05 214.38C306.9 323.51 329.29 447.36 349.07 568.49C350.61 577.83 352.12 587.18 353.87 596.42C354.14 597.76 353.26 599.08 351.91 599.33C350.57 599.58 349.27 598.7 349.02 597.36C347.28 587.98 345.79 578.62 344.29 569.27C325.02 448.49 303.04 325.05 245.19 215.94C238.46 203.5 231.14 191.37 222.92 179.88C220.18 176.1 217.29 172.27 214.21 168.83C213.62 168.17 214.62 168.55 215.29 167.96C215.95 167.37 216.02 166.01 216.62 166.68V166.67Z" fill="#0E1016"/>
<path d="M144.83 596.56C146.93 583.43 148.14 570.11 148.6 556.81C148.71 555.07 150.03 555.65 151.32 555.73C152.61 555.81 153.84 555.39 153.73 557.14C152.58 570.19 150.87 584.27 148.94 597.23C148.47 599.98 144.41 599.34 144.84 596.56H144.83Z" fill="#0E1016"/>
<path d="M216.55 216.68C251.43 271.93 276.5 332.66 298.69 393.91C320.2 455.25 339.67 517.79 350.82 581.93C351 583 350.27 584.02 349.19 584.19C348.12 584.36 347.11 583.64 346.93 582.58C344.21 566.63 340.67 550.81 336.82 535.06C329.14 503.78 319.67 472.3 309.67 441.66C286.67 372.56 259.96 304.27 223.75 240.94C220.71 235.71 217.59 230.47 214.35 225.4C213.26 223.69 215.27 215.52 215.27 215.52C215.73 215.76 216.17 216.14 216.56 216.68H216.55Z" fill="#0E1016"/>
<path d="M251.13 223.4C257.61 221.28 264.73 221.6 271.03 224.16C277.13 226.99 281.46 232.01 284.84 237.64L281.91 238.71C281.36 236.46 280.5 234.1 279.55 231.89C274.67 220.15 265.75 212.05 253.63 208.35C250.07 207.17 246.41 206.87 242.68 206.06C241.08 205.65 236.7 204.18 238.47 201.74C239.08 201.05 240.15 201 240.82 201.63C242.11 202.84 244.57 203.12 247.05 203.54C249.55 203.93 252.13 204.47 254.61 205.25C270.54 210.14 280.82 222.1 285 238.02L287.88 249.76C285.01 244.81 281.1 235.95 276.8 232.12C270.93 225.89 261.02 224.38 253.54 228.36C251.78 229.51 252.59 228.06 251.87 226.81C251.07 225.43 248.94 224.14 251.16 223.38L251.13 223.4Z" fill="#0E1016"/>
<path d="M302.76 349.1C303.87 351.94 305.94 354.64 307.77 357.14C312.85 363.95 318.98 369.75 325.21 375.52C331.43 381.73 336.37 389.19 339.63 397.37C342.27 403.96 343.29 411 343.27 418.13C343.27 418.13 342.85 432.46 342.85 432.47L339.88 418.43C338.68 412.88 336.36 407.24 333.16 402.47C328.3 395.35 321.05 389.65 312.77 387.14C311.86 386.88 310.87 386.64 310.08 386.54C309.02 386.41 308.27 385.44 308.4 384.37C308.54 383.23 309.66 382.46 310.77 382.73C312.99 383.28 314.82 384.02 316.82 384.93C330.23 391.05 339.59 403.58 343.23 417.7L339.84 417.99C339.91 414.77 339.65 411.36 339.12 408.1C337.51 398.28 332.59 389.17 326.11 381.67C323.89 379.1 321.55 376.92 318.96 374.65C313.77 370.01 309 364.96 304.67 359.5C302.76 357.04 300.86 354.53 299.43 351.71C299.21 351.3 299.01 350.76 298.82 350.23C298.44 349.17 299 348 300.06 347.62C301.21 347.2 302.45 347.9 302.74 349.08L302.76 349.1Z" fill="#0E1016"/>
<path d="M339.73 517.08C354.7 529.44 366.38 546.33 369.99 565.6C371.31 570.8 371.51 580.67 371.89 586.1L368.2 574.43C366.1 568.03 363.03 561.56 358.72 556.35C354.45 551.43 348.53 547.29 342.15 545.77C341.02 545.6 340.25 544.53 340.44 543.41C340.63 542.19 341.91 541.41 343.09 541.8C345.04 542.44 346.57 543.21 348.31 544.14C360.2 550.53 366.55 561.19 371.12 573.49L368.13 574.03C367.53 564.87 364.8 555.58 360.54 547.4C356.14 539.19 350.13 531.87 343.25 525.6C341.27 523.81 339.17 522.05 337.09 520.55C334.78 518.79 337.37 515.32 339.73 517.09V517.08Z" fill="#0E1016"/>
<path d="M180.24 328.93C162.69 328.93 157.99 326.88 157.74 326.76C157.11 326.47 156.84 325.73 157.13 325.1C157.42 324.48 158.15 324.2 158.78 324.49C158.94 324.56 167.84 328.14 205.35 325.39C229.46 323.62 258.8 318.91 262.16 311.45C262.44 310.82 263.18 310.54 263.81 310.82C264.44 311.1 264.72 311.84 264.44 312.47C261.16 319.76 239.69 325.38 205.54 327.88C195.05 328.65 186.76 328.93 180.25 328.93H180.24Z" fill="#0E1016"/>
<path d="M260.59 412.59C259.93 412.59 259.38 412.08 259.34 411.42C259.3 410.73 259.82 410.14 260.51 410.09C266.14 409.74 271.67 409.35 276.5 408.95C294.77 407.44 298.49 404.54 298.52 404.51C299.03 404.05 299.82 404.09 300.29 404.61C300.75 405.12 300.71 405.92 300.19 406.38C299.79 406.73 295.77 409.88 276.71 411.45C271.86 411.85 266.32 412.24 260.67 412.59C260.64 412.59 260.62 412.59 260.59 412.59V412.59Z" fill="#0E1016"/>
<path d="M260.52 516.12C259.86 516.12 259.31 515.61 259.27 514.94C259.23 514.25 259.76 513.66 260.45 513.62L262.95 513.47C306.52 510.87 326.49 508.83 329.61 503.61C329.96 503.02 330.73 502.82 331.32 503.18C331.91 503.53 332.11 504.3 331.75 504.89C328.05 511.08 311.36 513.08 263.09 515.96L260.58 516.11C260.58 516.11 260.53 516.11 260.51 516.11L260.52 516.12Z" fill="#0E1016"/>
<path d="M156.09 380.98L247.28 381.31H250.13C255.91 380.75 261.5 384.32 262.26 390.39C262.52 404.5 262.22 427.75 262.29 441.91C262.23 476.43 262.56 512.85 263.01 547.35C263.44 554.44 258.01 559.91 250.89 559.47C250.12 559.49 247.45 559.45 246.62 559.47C177.04 559.32 88.35 559.12 18.65 558.88L12.95 558.86C12.52 558.86 11.9 558.84 11.33 558.79C6.11 558.3 1.84 553.45 2.03 548.21C2.29 510.67 2.34 434.23 2.39 397.18C2.42 393.18 1.81 388.6 4.72 385.34C6.73 382.79 10.29 381.47 13.42 381.7H16.27L39.07 381.68C41 381.71 40.94 384.57 39.07 384.57L16.27 384.55H13.42C12.4 384.55 11.69 384.55 10.89 384.72C7.76 385.37 5.28 388.31 5.24 391.53C4.95 429.96 5.59 506.38 5.57 545.36V548.21C5.46 552.18 8.98 555.51 12.93 555.21C84.84 554.94 174.77 554.79 246.6 554.61H249.45H250.87H251.58H251.93L252.19 554.59C255.4 554.51 258.17 551.63 258.15 548.42C258.18 548.1 258.15 544.99 258.17 544.51C258.81 503.42 258.94 460.25 258.84 419.13L258.81 396.33V393.48V392.06C258.81 391.8 258.8 391.63 258.79 391.44C258.73 389.74 257.95 388.1 256.75 386.9C254.89 385.11 252.7 384.8 250.11 384.94H247.26L156.07 385.27C153.25 385.23 153.22 381.05 156.07 380.99L156.09 380.98Z" fill="#0E1016"/>
<path d="M95.56 466.74C68.17 444 38.65 418.54 11.55 395.26C31.76 411.09 56.6 430.52 76.55 446.44C83.73 452.18 90.93 457.89 98.05 463.71C99.03 464.53 97.86 465.08 97.24 465.84C96.62 466.6 96.58 467.55 95.56 466.74V466.74Z" fill="#0E1016"/>
<path d="M254.54 394.37C234.23 412.87 213.13 430.45 192.02 448C184.98 453.84 177.9 459.64 170.77 465.38C170.02 465.99 169.46 465.54 168.86 464.79C168.26 464.05 167.83 463.29 168.55 462.68C175.56 456.8 182.63 450.99 189.74 445.23C211.08 427.95 232.44 410.68 254.54 394.38V394.37Z" fill="#0E1016"/>
<path d="M173.2 476.48C173.46 504.82 144.19 524.28 118.15 513.22C103.63 507.24 93.55 492.19 93.57 476.48C93.34 448.05 122.41 428.72 148.55 439.84C163.03 445.87 173.24 460.72 173.21 476.48H173.2ZM170.01 476.48C170.11 443.49 130.79 427.67 107.54 450.65C84.52 473.95 100.44 513.03 133.37 513.1C153.11 513.28 170.16 496.22 170.02 476.47L170.01 476.48Z" fill="#0E1016"/>
<path d="M128.71 493.09L107.69 473.05L112.52 467.98L128.44 483.16L171.93 436.98L177.03 441.78L128.71 493.09Z" fill="#0E1016"/>
<path d="M374.54 599.9H123.19C121.53 599.9 120.19 598.56 120.19 596.9C120.19 595.24 121.53 593.9 123.19 593.9H374.54C376.2 593.9 377.54 595.24 377.54 596.9C377.54 598.56 376.2 599.9 374.54 599.9V599.9Z" fill="#ADD63D"/>
<path d="M256.25 316.08C257.98 315.21 258.92 314.05 259.1 312.39C259.28 310.73 258.63 309.3 258.08 308.1C257.53 306.9 259.88 308.05 261.1 310.52C262.32 312.99 262.79 313.82 261.32 314.64C259.85 315.46 256.26 317.07 256.26 317.07V316.07L256.25 316.08Z" fill="#0E1016"/>
<path d="M257.89 317.99C259.39 317.19 260.74 317.3 261.85 318.04C262.77 318.66 263.07 319.21 263.67 320.59C264.27 321.97 263.21 315.68 262.59 314.9C261.97 314.12 261.86 314.24 260.34 314.9C258.82 315.56 257.88 317.98 257.88 317.98L257.89 317.99Z" fill="#0E1016"/>
<path d="M293.86 406.31C294.6 406.1 295.48 405.59 295.86 404.44C296.24 403.29 295.97 401.99 295.71 401.27C295.45 400.55 297.48 401.79 297.97 403.63C298.46 405.47 299.63 406.21 297.84 406.62C296.05 407.03 293.86 406.31 293.86 406.31Z" fill="#0E1016"/>
<path d="M294.19 408.8C295.48 408.44 296.75 408.5 297.5 409.07C298.25 409.64 298.91 410.26 299.34 411.48C299.77 412.7 299.09 409.43 298.72 408.04C298.35 406.65 297.83 406.63 297.83 406.63L293.38 407.91L294.18 408.81L294.19 408.8Z" fill="#0E1016"/>
<path d="M325.22 506.58C326.09 506.23 327.08 505.43 327.63 504.06C328.04 503.01 328.01 501.67 327.63 500.31C327.25 498.95 329.31 502.16 329.63 503.62C329.95 505.08 330.17 504.81 328.8 505.94C327.43 507.07 325.22 506.79 325.22 506.79V506.58V506.58Z" fill="#0E1016"/>
<path d="M325.22 509.22C326.34 508.81 327.83 508.64 328.87 509.22C329.91 509.8 330.44 510.44 330.87 512.04C331.3 513.64 331.5 511.84 330.87 509.24C330.24 506.64 329.86 505.93 329.86 505.93L325.5 507.47L325.21 509.22H325.22Z" fill="#0E1016"/>
<path d="M160.14 319.82C160.36 315.77 164.42 312.72 170.07 309.16C176.37 305.2 187.01 300.42 195.02 291.13C201.23 283.92 181.86 296.89 175.75 299.76C169.64 302.63 164.89 303.62 161.84 307.12C158.79 310.62 159.06 317.26 159.06 317.26L160.14 319.82Z" fill="#0E1016"/>
<path d="M187.37 200.83C185.8 203.13 186.02 210.41 186.48 214.85C186.94 219.29 181.41 215.65 181.41 210.48C181.41 205.31 186.16 200.33 186.28 200.15C186.4 199.97 187.38 200.82 187.38 200.82L187.37 200.83Z" fill="#0E1016"/>
<path d="M116.76 345.98C118.33 345.1 120.96 342.41 120.49 338.1C120.02 333.79 123.03 338.28 123.13 341.07C123.23 343.86 125.83 343.67 122.15 345.33C118.47 346.99 116.77 345.98 116.77 345.98H116.76Z" fill="#0E1016"/>
<path d="M124.29 334.25C124.47 335.91 124.89 338.7 125.97 340.06C127.05 341.42 128.18 342.04 130.04 342.24C131.9 342.44 124.66 344.93 123.95 343.42C123.24 341.91 123.03 335.78 123.03 335.78L124.29 334.26V334.25Z" fill="#0E1016"/>
<path d="M59.38 278.35C62.08 280.6 66.34 283.52 72.05 284.99C77.76 286.46 81.26 287.84 81.26 287.84C81.26 287.84 77.43 287.27 73.6 287.02C73.03 286.98 72.6 287.24 73.41 287.75C75.25 288.89 70.34 287.51 66.18 285.15C61.29 282.38 59.38 278.35 59.38 278.35V278.35Z" fill="#0E1016"/>
</g>
<defs>
<clipPath id="clip0_118_2691">
<rect width="377.54" height="599.9" fill="white"/>
</clipPath>
</defs>
</svg>
