<svg width="465" height="465" viewBox="0 0 465 465" fill="none" xmlns="http://www.w3.org/2000/svg">
<path d="M432.802 232.798C432.802 272.354 421.072 311.022 399.096 343.912C377.119 376.802 345.884 402.436 309.339 417.574C272.793 432.711 232.58 436.672 193.784 428.955C154.988 421.238 119.351 402.19 91.3806 374.219C63.4101 346.249 44.3619 310.612 36.6448 271.816C28.9277 233.02 32.8882 192.807 48.0257 156.262C63.1631 119.716 88.7975 88.4805 121.687 66.5042C154.577 44.5278 193.245 32.798 232.801 32.7978" stroke="#67704D" stroke-width="64"/>
<path d="M215.758 33.5259C255.17 30.1556 294.697 38.5481 329.34 57.6422C363.983 76.7362 392.185 105.674 410.381 140.797C428.578 175.919 435.95 215.649 431.567 254.962C427.183 294.274 411.241 331.404 385.755 361.656C360.27 391.908 326.386 413.923 288.388 424.918C250.391 435.912 209.986 435.393 172.284 423.424C134.582 411.455 101.276 388.575 76.5769 357.678C51.8782 326.78 36.8963 289.252 33.5259 249.84" stroke="#67704D" stroke-width="64"/>
<path d="M197.461 263.218C192.386 263.218 188.011 262.016 184.336 259.61C180.662 257.186 177.831 253.711 175.842 249.184C173.853 244.639 172.869 239.175 172.887 232.792C172.906 226.41 173.901 220.993 175.87 216.542C177.859 212.072 180.681 208.673 184.336 206.343C188.011 203.995 192.386 202.821 197.461 202.821C202.537 202.821 206.912 203.995 210.586 206.343C214.28 208.673 217.12 212.072 219.109 216.542C221.098 221.012 222.083 226.429 222.064 232.792C222.064 239.194 221.069 244.667 219.081 249.213C217.092 253.758 214.261 257.233 210.586 259.639C206.931 262.025 202.556 263.218 197.461 263.218ZM197.461 251.713C200.492 251.713 202.944 250.169 204.819 247.082C206.694 243.976 207.622 239.213 207.603 232.792C207.603 228.588 207.177 225.122 206.325 222.394C205.473 219.648 204.289 217.603 202.774 216.258C201.259 214.913 199.488 214.241 197.461 214.241C194.45 214.241 192.016 215.766 190.16 218.815C188.304 221.845 187.367 226.504 187.348 232.792C187.329 237.054 187.736 240.586 188.569 243.389C189.422 246.192 190.615 248.285 192.149 249.667C193.683 251.031 195.454 251.713 197.461 251.713ZM262.703 250.889V247.821C262.703 245.434 263.214 243.228 264.237 241.201C265.279 239.175 266.784 237.546 268.754 236.315C270.724 235.084 273.129 234.468 275.97 234.468C278.868 234.468 281.301 235.084 283.271 236.315C285.26 237.527 286.756 239.146 287.76 241.173C288.782 243.18 289.294 245.396 289.294 247.821V250.889C289.294 253.275 288.782 255.482 287.76 257.508C286.737 259.535 285.231 261.163 283.243 262.394C281.254 263.626 278.83 264.241 275.97 264.241C273.091 264.241 270.667 263.626 268.697 262.394C266.727 261.163 265.231 259.535 264.208 257.508C263.205 255.482 262.703 253.275 262.703 250.889ZM271.765 247.821V250.889C271.765 252.101 272.059 253.266 272.646 254.383C273.252 255.501 274.36 256.059 275.97 256.059C277.618 256.059 278.726 255.519 279.294 254.44C279.862 253.341 280.146 252.158 280.146 250.889V247.821C280.146 246.552 279.871 245.358 279.322 244.241C278.792 243.105 277.674 242.536 275.97 242.536C274.379 242.536 273.28 243.105 272.674 244.241C272.068 245.358 271.765 246.552 271.765 247.821ZM232.532 217.593V214.525C232.532 212.101 233.053 209.885 234.095 207.877C235.155 205.851 236.671 204.232 238.64 203.019C240.61 201.788 242.996 201.173 245.799 201.173C248.697 201.173 251.131 201.788 253.101 203.019C255.089 204.232 256.595 205.851 257.618 207.877C258.64 209.885 259.152 212.101 259.152 214.525V217.593C259.152 220.018 258.631 222.233 257.589 224.241C256.566 226.249 255.061 227.849 253.072 229.042C251.083 230.235 248.659 230.832 245.799 230.832C242.94 230.832 240.515 230.226 238.527 229.014C236.557 227.802 235.061 226.192 234.038 224.184C233.034 222.177 232.532 219.98 232.532 217.593ZM241.68 214.525V217.593C241.68 218.862 241.974 220.046 242.561 221.144C243.167 222.224 244.246 222.764 245.799 222.764C247.466 222.764 248.574 222.224 249.123 221.144C249.691 220.046 249.976 218.862 249.976 217.593V214.525C249.976 213.256 249.71 212.063 249.18 210.946C248.65 209.809 247.523 209.241 245.799 209.241C244.208 209.241 243.119 209.819 242.532 210.974C241.964 212.129 241.68 213.313 241.68 214.525ZM236.822 261.798L276.822 203.616H284.578L244.578 261.798H236.822Z" fill="#BADC58"/>
</svg>
