<svg width="465" height="465" viewBox="0 0 465 465" fill="none" xmlns="http://www.w3.org/2000/svg">
<path d="M432.801 232.798C432.801 272.354 421.071 311.022 399.095 343.912C377.118 376.802 345.883 402.436 309.338 417.574C272.792 432.711 232.579 436.672 193.783 428.955C154.987 421.238 119.35 402.19 91.3796 374.219C63.4091 346.249 44.3609 310.612 36.6438 271.816C28.9267 233.02 32.8873 192.807 48.0247 156.262C63.1621 119.716 88.7966 88.4805 121.686 66.5042C154.576 44.5278 193.244 32.798 232.8 32.7978" stroke="#67704D" stroke-width="64"/>
<path d="M232.801 32.7979C262.827 32.7979 292.468 39.5587 319.525 52.5789C346.582 65.599 370.36 84.5442 389.095 108.009C407.829 131.474 421.04 158.856 427.747 188.124C434.455 217.391 434.485 247.794 427.838 277.075" stroke="#BADC58" stroke-width="64" stroke-linecap="round"/>
<path d="M149.218 261.798V251.684L170.44 233.105C172.031 231.665 173.385 230.349 174.502 229.156C175.62 227.944 176.472 226.732 177.059 225.519C177.646 224.288 177.94 222.953 177.94 221.514C177.94 219.904 177.589 218.531 176.889 217.394C176.188 216.239 175.222 215.349 173.991 214.724C172.76 214.099 171.349 213.786 169.758 213.786C168.148 213.786 166.737 214.118 165.525 214.781C164.313 215.425 163.366 216.362 162.684 217.593C162.021 218.824 161.69 220.321 161.69 222.082H148.366C148.366 218.124 149.256 214.705 151.036 211.826C152.817 208.947 155.317 206.732 158.536 205.179C161.775 203.607 165.534 202.821 169.815 202.821C174.228 202.821 178.063 203.559 181.32 205.036C184.578 206.514 187.097 208.578 188.877 211.23C190.676 213.862 191.576 216.921 191.576 220.406C191.576 222.622 191.131 224.819 190.241 226.997C189.351 229.175 187.75 231.58 185.44 234.213C183.148 236.845 179.891 239.999 175.667 243.673L168.707 250.093V250.463H192.286V261.798H149.218ZM222.961 262.593C218.435 262.593 214.391 261.874 210.83 260.434C207.289 258.976 204.505 257.006 202.478 254.525C200.471 252.025 199.467 249.203 199.467 246.059C199.467 243.654 200.044 241.447 201.2 239.44C202.355 237.432 203.918 235.766 205.887 234.44C207.876 233.095 210.092 232.233 212.535 231.855V231.4C209.334 230.813 206.711 229.326 204.666 226.94C202.639 224.554 201.626 221.76 201.626 218.559C201.626 215.529 202.544 212.83 204.382 210.463C206.238 208.095 208.766 206.23 211.967 204.866C215.186 203.502 218.851 202.821 222.961 202.821C227.071 202.821 230.726 203.502 233.927 204.866C237.147 206.23 239.675 208.095 241.512 210.463C243.368 212.83 244.296 215.529 244.296 218.559C244.296 221.779 243.264 224.582 241.2 226.968C239.154 229.336 236.55 230.813 233.387 231.4V231.855C235.811 232.233 238.008 233.095 239.978 234.44C241.967 235.766 243.539 237.432 244.694 239.44C245.868 241.447 246.455 243.654 246.455 246.059C246.455 249.203 245.442 252.025 243.416 254.525C241.389 257.006 238.605 258.976 235.063 260.434C231.541 261.874 227.507 262.593 222.961 262.593ZM222.961 252.622C224.685 252.622 226.2 252.3 227.507 251.656C228.813 250.993 229.836 250.074 230.575 248.9C231.332 247.726 231.711 246.4 231.711 244.923C231.711 243.408 231.332 242.063 230.575 240.889C229.817 239.715 228.775 238.796 227.45 238.133C226.143 237.451 224.647 237.11 222.961 237.11C221.294 237.11 219.798 237.451 218.472 238.133C217.147 238.796 216.105 239.715 215.347 240.889C214.59 242.063 214.211 243.408 214.211 244.923C214.211 246.4 214.58 247.726 215.319 248.9C216.077 250.055 217.109 250.965 218.416 251.627C219.741 252.29 221.257 252.622 222.961 252.622ZM222.961 227.196C224.438 227.196 225.745 226.893 226.882 226.286C228.037 225.68 228.936 224.838 229.58 223.758C230.243 222.679 230.575 221.457 230.575 220.093C230.575 218.73 230.243 217.527 229.58 216.485C228.936 215.444 228.046 214.629 226.91 214.042C225.774 213.436 224.457 213.133 222.961 213.133C221.484 213.133 220.168 213.436 219.012 214.042C217.857 214.629 216.957 215.444 216.313 216.485C215.669 217.527 215.347 218.73 215.347 220.093C215.347 221.457 215.669 222.679 216.313 223.758C216.976 224.819 217.885 225.661 219.041 226.286C220.196 226.893 221.503 227.196 222.961 227.196ZM286.882 250.889V247.821C286.882 245.434 287.393 243.228 288.416 241.201C289.457 239.175 290.963 237.546 292.933 236.315C294.902 235.084 297.308 234.468 300.149 234.468C303.046 234.468 305.48 235.084 307.45 236.315C309.438 237.527 310.935 239.146 311.938 241.173C312.961 243.18 313.472 245.396 313.472 247.821V250.889C313.472 253.275 312.961 255.482 311.938 257.508C310.916 259.535 309.41 261.163 307.421 262.394C305.433 263.626 303.008 264.241 300.149 264.241C297.27 264.241 294.846 263.626 292.876 262.394C290.906 261.163 289.41 259.535 288.387 257.508C287.383 255.482 286.882 253.275 286.882 250.889ZM295.944 247.821V250.889C295.944 252.101 296.238 253.266 296.825 254.383C297.431 255.501 298.539 256.059 300.149 256.059C301.796 256.059 302.904 255.519 303.472 254.44C304.041 253.341 304.325 252.158 304.325 250.889V247.821C304.325 246.552 304.05 245.358 303.501 244.241C302.971 243.105 301.853 242.536 300.149 242.536C298.558 242.536 297.459 243.105 296.853 244.241C296.247 245.358 295.944 246.552 295.944 247.821ZM256.711 217.593V214.525C256.711 212.101 257.232 209.885 258.274 207.877C259.334 205.851 260.849 204.232 262.819 203.019C264.789 201.788 267.175 201.173 269.978 201.173C272.876 201.173 275.31 201.788 277.279 203.019C279.268 204.232 280.774 205.851 281.796 207.877C282.819 209.885 283.33 212.101 283.33 214.525V217.593C283.33 220.018 282.81 222.233 281.768 224.241C280.745 226.249 279.239 227.849 277.251 229.042C275.262 230.235 272.838 230.832 269.978 230.832C267.118 230.832 264.694 230.226 262.705 229.014C260.736 227.802 259.239 226.192 258.217 224.184C257.213 222.177 256.711 219.98 256.711 217.593ZM265.859 214.525V217.593C265.859 218.862 266.152 220.046 266.739 221.144C267.346 222.224 268.425 222.764 269.978 222.764C271.645 222.764 272.753 222.224 273.302 221.144C273.87 220.046 274.154 218.862 274.154 217.593V214.525C274.154 213.256 273.889 212.063 273.359 210.946C272.828 209.809 271.702 209.241 269.978 209.241C268.387 209.241 267.298 209.819 266.711 210.974C266.143 212.129 265.859 213.313 265.859 214.525ZM261.001 261.798L301.001 203.616H308.757L268.757 261.798H261.001Z" fill="#BADC58"/>
</svg>
