<svg width="464" height="464" viewBox="0 0 464 464" fill="none" xmlns="http://www.w3.org/2000/svg">
<path d="M432 232C432 271.556 420.27 310.224 398.294 343.114C376.318 376.004 345.082 401.638 308.537 416.776C271.992 431.913 231.778 435.874 192.982 428.157C154.186 420.44 118.549 401.392 90.5788 373.422C62.6083 345.451 43.5601 309.815 35.843 271.018C28.1259 232.222 32.0865 192.009 47.2239 155.464C62.3614 118.918 87.9958 87.6827 120.886 65.7063C153.775 43.73 192.443 32.0001 231.999 32" stroke="#67704D" stroke-width="64"/>
<path d="M232 32C261.853 32 291.327 38.6829 318.261 51.5585C345.194 64.4342 368.904 83.1759 387.65 106.409C406.396 129.642 419.704 156.777 426.596 185.823C433.489 214.869 433.792 245.09 427.482 274.269C421.173 303.447 408.412 330.843 390.135 354.447C371.858 378.051 348.529 397.264 321.859 410.677C295.189 424.089 265.854 431.362 236.008 431.96C206.161 432.558 176.558 426.467 149.372 414.134" stroke="#BADC58" stroke-width="64" stroke-linecap="round"/>
<path d="M172.839 261.795C168.596 261.795 164.827 261.028 161.532 259.494C158.236 257.96 155.632 255.848 153.719 253.159C151.825 250.47 150.84 247.383 150.765 243.898H164.401C164.515 246.038 165.386 247.761 167.015 249.068C168.643 250.356 170.585 251 172.839 251C174.6 251 176.162 250.612 177.526 249.835C178.89 249.059 179.96 247.97 180.736 246.568C181.513 245.148 181.892 243.519 181.873 241.682C181.892 239.807 181.503 238.169 180.708 236.767C179.931 235.366 178.852 234.277 177.469 233.5C176.106 232.705 174.534 232.307 172.753 232.307C171.068 232.288 169.467 232.657 167.952 233.415C166.456 234.172 165.32 235.205 164.543 236.511L152.128 234.182L154.657 202.818H191.986V214.153H166.219L164.884 227.875H165.225C166.191 226.265 167.744 224.939 169.884 223.898C172.043 222.837 174.496 222.307 177.242 222.307C180.727 222.307 183.833 223.121 186.56 224.75C189.306 226.36 191.465 228.595 193.037 231.455C194.628 234.314 195.424 237.591 195.424 241.284C195.424 245.28 194.477 248.822 192.583 251.909C190.708 254.996 188.075 257.42 184.685 259.182C181.314 260.924 177.365 261.795 172.839 261.795ZM205.616 261L229.081 214.523V214.153H201.638V202.818H243.627V214.239L220.076 261H205.616ZM283.932 250.091V247.023C283.932 244.636 284.444 242.43 285.466 240.403C286.508 238.377 288.014 236.748 289.983 235.517C291.953 234.286 294.358 233.67 297.199 233.67C300.097 233.67 302.531 234.286 304.5 235.517C306.489 236.729 307.985 238.348 308.989 240.375C310.012 242.383 310.523 244.598 310.523 247.023V250.091C310.523 252.477 310.012 254.684 308.989 256.71C307.966 258.737 306.461 260.366 304.472 261.597C302.483 262.828 300.059 263.443 297.199 263.443C294.321 263.443 291.896 262.828 289.927 261.597C287.957 260.366 286.461 258.737 285.438 256.71C284.434 254.684 283.932 252.477 283.932 250.091ZM292.995 247.023V250.091C292.995 251.303 293.288 252.468 293.875 253.585C294.482 254.703 295.589 255.261 297.199 255.261C298.847 255.261 299.955 254.722 300.523 253.642C301.091 252.544 301.375 251.36 301.375 250.091V247.023C301.375 245.754 301.101 244.561 300.552 243.443C300.021 242.307 298.904 241.739 297.199 241.739C295.608 241.739 294.51 242.307 293.904 243.443C293.298 244.561 292.995 245.754 292.995 247.023ZM253.762 216.795V213.727C253.762 211.303 254.283 209.087 255.324 207.08C256.385 205.053 257.9 203.434 259.87 202.222C261.839 200.991 264.226 200.375 267.029 200.375C269.927 200.375 272.36 200.991 274.33 202.222C276.319 203.434 277.824 205.053 278.847 207.08C279.87 209.087 280.381 211.303 280.381 213.727V216.795C280.381 219.22 279.86 221.436 278.819 223.443C277.796 225.451 276.29 227.051 274.302 228.244C272.313 229.437 269.889 230.034 267.029 230.034C264.169 230.034 261.745 229.428 259.756 228.216C257.786 227.004 256.29 225.394 255.268 223.386C254.264 221.379 253.762 219.182 253.762 216.795ZM262.91 213.727V216.795C262.91 218.064 263.203 219.248 263.79 220.347C264.396 221.426 265.476 221.966 267.029 221.966C268.696 221.966 269.804 221.426 270.353 220.347C270.921 219.248 271.205 218.064 271.205 216.795V213.727C271.205 212.458 270.94 211.265 270.41 210.148C269.879 209.011 268.752 208.443 267.029 208.443C265.438 208.443 264.349 209.021 263.762 210.176C263.194 211.331 262.91 212.515 262.91 213.727ZM258.052 261L298.052 202.818H305.807L265.807 261H258.052Z" fill="#BADC58"/>
</svg>
