<svg width="566" height="566" viewBox="0 0 566 566" fill="none" xmlns="http://www.w3.org/2000/svg">
<path d="M483.002 282.999C483.002 322.556 471.272 361.223 449.296 394.113C427.32 427.003 396.084 452.638 359.539 467.775C322.994 482.913 282.78 486.873 243.984 479.156C205.188 471.439 169.551 452.391 141.581 424.421C113.61 396.45 94.5621 360.814 86.845 322.018C79.1278 283.221 83.0884 243.008 98.2259 206.463C113.363 169.918 138.998 138.682 171.887 116.706C204.777 94.7293 243.445 82.9994 283.001 82.9993" stroke="#67704D" stroke-width="64"/>
<path d="M426.898 144.1C454.37 172.56 472.785 208.528 479.815 247.454C486.846 286.381 482.175 326.518 466.394 362.79C450.613 399.062 424.431 429.84 391.158 451.231C357.885 472.623 319.015 483.668 279.465 482.969C239.915 482.27 201.461 469.858 168.964 447.304C136.468 424.75 111.389 393.067 96.9001 356.26C82.4107 319.453 79.1612 279.176 87.5626 240.522C95.9639 201.868 115.639 166.574 144.099 139.102" stroke="#67704D" stroke-width="64"/>
<path d="M283.002 82.9993C312.374 82.9993 341.385 89.4686 367.974 101.948C394.563 114.427 418.078 132.609 436.846 155.202" stroke="#BADC58" stroke-width="64" stroke-linecap="round"/>
<path d="M231.401 253.817V311.999H217.367V266.942H217.026L204.015 274.897V262.738L218.361 253.817H231.401ZM243.553 302.34V291.374L267.388 253.817H277.132V268.704H271.479L257.53 290.806V291.261H292.047V302.34H243.553ZM271.649 311.999V298.988L271.934 294.187V253.817H285.087V311.999H271.649ZM332.005 301.09V298.022C332.005 295.636 332.516 293.429 333.539 291.403C334.58 289.376 336.086 287.747 338.056 286.516C340.025 285.285 342.431 284.67 345.272 284.67C348.169 284.67 350.603 285.285 352.573 286.516C354.561 287.728 356.058 289.348 357.061 291.374C358.084 293.382 358.595 295.598 358.595 298.022V301.09C358.595 303.477 358.084 305.683 357.061 307.709C356.039 309.736 354.533 311.365 352.544 312.596C350.556 313.827 348.131 314.442 345.272 314.442C342.393 314.442 339.969 313.827 337.999 312.596C336.029 311.365 334.533 309.736 333.51 307.709C332.506 305.683 332.005 303.477 332.005 301.09ZM341.067 298.022V301.09C341.067 302.302 341.361 303.467 341.948 304.584C342.554 305.702 343.662 306.261 345.272 306.261C346.919 306.261 348.027 305.721 348.595 304.641C349.164 303.543 349.448 302.359 349.448 301.09V298.022C349.448 296.753 349.173 295.56 348.624 294.442C348.094 293.306 346.976 292.738 345.272 292.738C343.681 292.738 342.582 293.306 341.976 294.442C341.37 295.56 341.067 296.753 341.067 298.022ZM301.834 267.795V264.727C301.834 262.302 302.355 260.086 303.397 258.079C304.457 256.052 305.972 254.433 307.942 253.221C309.912 251.99 312.298 251.374 315.101 251.374C317.999 251.374 320.433 251.99 322.402 253.221C324.391 254.433 325.897 256.052 326.919 258.079C327.942 260.086 328.453 262.302 328.453 264.727V267.795C328.453 270.219 327.933 272.435 326.891 274.442C325.868 276.45 324.363 278.05 322.374 279.244C320.385 280.437 317.961 281.033 315.101 281.033C312.241 281.033 309.817 280.427 307.828 279.215C305.859 278.003 304.363 276.393 303.34 274.386C302.336 272.378 301.834 270.181 301.834 267.795ZM310.982 264.727V267.795C310.982 269.064 311.275 270.247 311.863 271.346C312.469 272.425 313.548 272.965 315.101 272.965C316.768 272.965 317.876 272.425 318.425 271.346C318.993 270.247 319.277 269.064 319.277 267.795V264.727C319.277 263.458 319.012 262.264 318.482 261.147C317.952 260.011 316.825 259.442 315.101 259.442C313.51 259.442 312.421 260.02 311.834 261.175C311.266 262.331 310.982 263.514 310.982 264.727ZM306.124 311.999L346.124 253.817H353.88L313.88 311.999H306.124Z" fill="#BADC58"/>
</svg>
