<svg width="464" height="464" viewBox="0 0 464 464" fill="none" xmlns="http://www.w3.org/2000/svg">
<path d="M432 232C432 271.556 420.27 310.224 398.294 343.114C376.318 376.004 345.082 401.638 308.537 416.776C271.992 431.913 231.778 435.874 192.982 428.157C154.186 420.44 118.549 401.392 90.5788 373.422C62.6083 345.451 43.5601 309.815 35.843 271.018C28.1259 232.222 32.0865 192.009 47.2239 155.464C62.3614 118.918 87.9958 87.6827 120.886 65.7063C153.775 43.73 192.443 32.0001 231.999 32" stroke="#67704D" stroke-width="64"/>
<path d="M232 32C269.593 32 306.424 42.5951 338.271 62.5703C370.118 82.5454 395.69 111.092 412.055 144.936C428.42 178.779 434.915 216.55 430.796 253.917C426.676 291.283 412.108 326.732 388.764 356.198C365.419 385.664 334.242 407.954 298.809 420.511C263.376 433.069 225.12 435.386 188.43 427.197C151.741 419.007 118.102 400.643 91.3713 374.21C64.641 347.776 45.9018 314.345 37.3027 277.749" stroke="#BADC58" stroke-width="64" stroke-linecap="round"/>
<path d="M159.444 261L182.91 214.523V214.153H155.466V202.818H197.455V214.239L173.904 261H159.444ZM232.079 202.818V261H218.045V215.943H217.704L204.692 223.898V211.739L219.039 202.818H232.079ZM277.526 250.091V247.023C277.526 244.636 278.037 242.43 279.06 240.403C280.102 238.377 281.607 236.748 283.577 235.517C285.547 234.286 287.952 233.67 290.793 233.67C293.691 233.67 296.125 234.286 298.094 235.517C300.083 236.729 301.579 238.348 302.583 240.375C303.606 242.383 304.117 244.598 304.117 247.023V250.091C304.117 252.477 303.606 254.684 302.583 256.71C301.56 258.737 300.054 260.366 298.066 261.597C296.077 262.828 293.653 263.443 290.793 263.443C287.914 263.443 285.49 262.828 283.52 261.597C281.551 260.366 280.054 258.737 279.032 256.71C278.028 254.684 277.526 252.477 277.526 250.091ZM286.589 247.023V250.091C286.589 251.303 286.882 252.468 287.469 253.585C288.075 254.703 289.183 255.261 290.793 255.261C292.441 255.261 293.549 254.722 294.117 253.642C294.685 252.544 294.969 251.36 294.969 250.091V247.023C294.969 245.754 294.695 244.561 294.145 243.443C293.615 242.307 292.498 241.739 290.793 241.739C289.202 241.739 288.104 242.307 287.498 243.443C286.892 244.561 286.589 245.754 286.589 247.023ZM247.356 216.795V213.727C247.356 211.303 247.876 209.087 248.918 207.08C249.979 205.053 251.494 203.434 253.464 202.222C255.433 200.991 257.82 200.375 260.623 200.375C263.52 200.375 265.954 200.991 267.924 202.222C269.912 203.434 271.418 205.053 272.441 207.08C273.464 209.087 273.975 211.303 273.975 213.727V216.795C273.975 219.22 273.454 221.436 272.412 223.443C271.39 225.451 269.884 227.051 267.895 228.244C265.907 229.437 263.482 230.034 260.623 230.034C257.763 230.034 255.339 229.428 253.35 228.216C251.38 227.004 249.884 225.394 248.861 223.386C247.857 221.379 247.356 219.182 247.356 216.795ZM256.503 213.727V216.795C256.503 218.064 256.797 219.248 257.384 220.347C257.99 221.426 259.07 221.966 260.623 221.966C262.289 221.966 263.397 221.426 263.947 220.347C264.515 219.248 264.799 218.064 264.799 216.795V213.727C264.799 212.458 264.534 211.265 264.003 210.148C263.473 209.011 262.346 208.443 260.623 208.443C259.032 208.443 257.943 209.021 257.356 210.176C256.787 211.331 256.503 212.515 256.503 213.727ZM251.645 261L291.645 202.818H299.401L259.401 261H251.645Z" fill="#BADC58"/>
</svg>
