<svg width="464" height="464" viewBox="0 0 464 464" fill="none" xmlns="http://www.w3.org/2000/svg">
<path d="M432 232C432 271.556 420.27 310.224 398.294 343.114C376.318 376.004 345.082 401.638 308.537 416.776C271.992 431.913 231.778 435.874 192.982 428.157C154.186 420.44 118.549 401.392 90.5788 373.422C62.6083 345.451 43.5601 309.815 35.843 271.018C28.1259 232.222 32.0865 192.009 47.2239 155.464C62.3614 118.918 87.9958 87.6827 120.886 65.7063C153.775 43.73 192.443 32.0001 231.999 32" stroke="#67704D" stroke-width="64"/>
<path d="M232 32C277.35 32 321.353 47.4122 356.792 75.7084C392.23 104.005 417 143.505 427.039 187.729C437.077 231.954 431.787 278.277 412.038 319.1C392.288 359.923 359.251 392.823 318.345 412.401" stroke="#BADC58" stroke-width="64" stroke-linecap="round"/>
<path d="M145.988 251.341V240.375L169.824 202.818H179.568V217.705H173.915L159.966 239.807V240.261H194.483V251.341H145.988ZM174.085 261V247.989L174.369 243.188V202.818H187.522V261H174.085ZM223.986 261.795C219.554 261.795 215.624 261.038 212.196 259.523C208.787 257.989 206.097 255.877 204.128 253.188C202.158 250.498 201.154 247.402 201.116 243.898H215.264C215.321 245.167 215.728 246.294 216.486 247.278C217.243 248.244 218.275 249.002 219.582 249.551C220.889 250.1 222.376 250.375 224.042 250.375C225.709 250.375 227.177 250.081 228.446 249.494C229.734 248.888 230.737 248.064 231.457 247.023C232.177 245.962 232.527 244.75 232.508 243.386C232.527 242.023 232.139 240.811 231.344 239.75C230.548 238.689 229.421 237.866 227.963 237.278C226.523 236.691 224.819 236.398 222.849 236.398H217.196V226.398H222.849C224.573 226.398 226.088 226.114 227.395 225.545C228.72 224.977 229.753 224.182 230.491 223.159C231.23 222.117 231.59 220.924 231.571 219.58C231.59 218.273 231.277 217.127 230.633 216.142C230.008 215.138 229.128 214.362 227.991 213.812C226.874 213.263 225.576 212.989 224.099 212.989C222.546 212.989 221.135 213.263 219.866 213.812C218.616 214.362 217.622 215.138 216.883 216.142C216.145 217.146 215.756 218.311 215.719 219.636H202.281C202.319 216.17 203.285 213.121 205.179 210.489C207.073 207.837 209.648 205.763 212.906 204.267C216.183 202.771 219.914 202.023 224.099 202.023C228.266 202.023 231.931 202.752 235.094 204.21C238.256 205.669 240.719 207.657 242.48 210.176C244.241 212.676 245.122 215.508 245.122 218.67C245.141 221.947 244.071 224.646 241.912 226.767C239.772 228.888 237.016 230.195 233.645 230.688V231.142C238.152 231.672 241.552 233.131 243.844 235.517C246.154 237.903 247.3 240.886 247.281 244.466C247.281 247.837 246.287 250.83 244.298 253.443C242.328 256.038 239.582 258.083 236.059 259.58C232.556 261.057 228.531 261.795 223.986 261.795ZM287.799 250.091V247.023C287.799 244.636 288.311 242.43 289.334 240.403C290.375 238.377 291.881 236.748 293.851 235.517C295.82 234.286 298.226 233.67 301.067 233.67C303.964 233.67 306.398 234.286 308.368 235.517C310.356 236.729 311.853 238.348 312.856 240.375C313.879 242.383 314.39 244.598 314.39 247.023V250.091C314.39 252.477 313.879 254.684 312.856 256.71C311.834 258.737 310.328 260.366 308.339 261.597C306.351 262.828 303.926 263.443 301.067 263.443C298.188 263.443 295.764 262.828 293.794 261.597C291.824 260.366 290.328 258.737 289.305 256.71C288.301 254.684 287.799 252.477 287.799 250.091ZM296.862 247.023V250.091C296.862 251.303 297.156 252.468 297.743 253.585C298.349 254.703 299.457 255.261 301.067 255.261C302.714 255.261 303.822 254.722 304.39 253.642C304.959 252.544 305.243 251.36 305.243 250.091V247.023C305.243 245.754 304.968 244.561 304.419 243.443C303.889 242.307 302.771 241.739 301.067 241.739C299.476 241.739 298.377 242.307 297.771 243.443C297.165 244.561 296.862 245.754 296.862 247.023ZM257.629 216.795V213.727C257.629 211.303 258.15 209.087 259.192 207.08C260.252 205.053 261.767 203.434 263.737 202.222C265.707 200.991 268.093 200.375 270.896 200.375C273.794 200.375 276.228 200.991 278.197 202.222C280.186 203.434 281.692 205.053 282.714 207.08C283.737 209.087 284.248 211.303 284.248 213.727V216.795C284.248 219.22 283.728 221.436 282.686 223.443C281.663 225.451 280.157 227.051 278.169 228.244C276.18 229.437 273.756 230.034 270.896 230.034C268.036 230.034 265.612 229.428 263.623 228.216C261.654 227.004 260.157 225.394 259.135 223.386C258.131 221.379 257.629 219.182 257.629 216.795ZM266.777 213.727V216.795C266.777 218.064 267.07 219.248 267.657 220.347C268.264 221.426 269.343 221.966 270.896 221.966C272.563 221.966 273.671 221.426 274.22 220.347C274.788 219.248 275.072 218.064 275.072 216.795V213.727C275.072 212.458 274.807 211.265 274.277 210.148C273.746 209.011 272.62 208.443 270.896 208.443C269.305 208.443 268.216 209.021 267.629 210.176C267.061 211.331 266.777 212.515 266.777 213.727ZM261.919 261L301.919 202.818H309.674L269.674 261H261.919Z" fill="#BADC58"/>
</svg>
