<?xml version="1.0" encoding="utf-8"?>
<!-- Generator: Adobe Illustrator 24.0.1, SVG Export Plug-In . SVG Version: 6.00 Build 0)  -->
<svg version="1.1" id="Layer_1" xmlns="http://www.w3.org/2000/svg" xmlns:xlink="http://www.w3.org/1999/xlink" x="0px" y="0px"
	 viewBox="0 0 120 60" width="120" height="60" style="enable-background:new 0 0 120 60;" xml:space="preserve">
<style type="text/css">
	.st0{fill:#808285;}
	.st1{fill:url(#SVGID_1_);}
	.st2{fill:#005B99;}
	.st3{enable-background:new    ;}
	.st4{fill:#77787B;}
</style>
<g>
	<path class="st0" d="M34.1,42.6h9.4v-3.2C41.5,41.2,38.2,42.3,34.1,42.6L34.1,42.6z"/>
	<path class="st0" d="M17.3,40.1v2.5h11.9c-2.4-0.2-5-0.6-7.6-1.2C20.1,41,18.7,40.6,17.3,40.1L17.3,40.1z"/>
	
		<radialGradient id="SVGID_1_" cx="-183.5882" cy="811.1324" r="47.498" gradientTransform="matrix(1 0 0 1 241.0864 -776.3726)" gradientUnits="userSpaceOnUse">
		<stop  offset="0" style="stop-color:#0095DA"/>
		<stop  offset="0.21" style="stop-color:#0095DA"/>
		<stop  offset="0.33" style="stop-color:#00ACE4"/>
		<stop  offset="0.9045" style="stop-color:#005093"/>
		<stop  offset="0.9335" style="stop-color:#005396"/>
		<stop  offset="0.954" style="stop-color:#005C9F"/>
		<stop  offset="0.9718" style="stop-color:#006BAE"/>
		<stop  offset="0.988" style="stop-color:#0080C4"/>
		<stop  offset="1" style="stop-color:#0095DA"/>
	</radialGradient>
	<path class="st1" d="M43.5,18.5H29.2C23,17.1,15.4,17.1,10,18.2c2.4-0.3,5.1-0.3,7.8,0.1c0.7,0.1,1.3,0.2,2,0.3l0,0
		c2.9,0.5,5.7,1.2,8.1,2.2l0,0c0.3,0.1,0.5,0.2,0.8,0.3h0c0.1,0,0.2,0.1,0.3,0.1h0c0.1,0,0.2,0.1,0.3,0.1h0c0.1,0,0.2,0.1,0.2,0.1
		l0,0c0.1,0,0.1,0.1,0.2,0.1l0,0c0.1,0,0.1,0.1,0.2,0.1l0,0c0.1,0,0.2,0.1,0.2,0.1l0,0l0,0h0c0.1,0,0.1,0.1,0.2,0.1l0,0
		c0.1,0,0.1,0.1,0.2,0.1l0,0c0.1,0,0.1,0.1,0.2,0.1l0,0c0.1,0,0.1,0.1,0.2,0.1l0,0c0.1,0,0.1,0.1,0.2,0.1l0,0c0.1,0,0.1,0.1,0.2,0.1
		l0.1,0c0.1,0,0.1,0.1,0.2,0.1l0.1,0c0.1,0,0.1,0.1,0.2,0.1l0.1,0c0.1,0,0.1,0.1,0.2,0.1l0.1,0c0.1,0,0.1,0.1,0.1,0.1l0.1,0.1
		c0.1,0,0.1,0.1,0.1,0.1l0.1,0.1c0.1,0,0.1,0.1,0.1,0.1l0.1,0.1c0,0,0.1,0.1,0.1,0.1c3.2,2.2,5.1,4.9,5.1,7.6c0,3.1-2.6,5.7-6.8,7.2
		c2.9-1.5,4.6-3.6,4.6-6.1c0-3.1-2.7-6.3-7-8.7c-0.1,0-0.1-0.1-0.2-0.1c-0.1,0-0.1-0.1-0.2-0.1c-0.1,0-0.1-0.1-0.2-0.1
		c-0.1,0-0.1-0.1-0.2-0.1c-0.1,0-0.1-0.1-0.2-0.1c-0.1,0-0.1-0.1-0.2-0.1c-0.1,0-0.1-0.1-0.2-0.1l-0.2-0.1c-0.1,0-0.2-0.1-0.2-0.1
		l-0.1-0.1c-0.1,0-0.1-0.1-0.2-0.1c-0.1,0-0.1-0.1-0.2-0.1c-0.1,0-0.1-0.1-0.2-0.1c-0.1,0-0.1-0.1-0.2-0.1c-0.1,0-0.1-0.1-0.2-0.1
		L26,22c-0.1,0-0.2-0.1-0.3-0.1h0l-0.2-0.1l0,0c-0.1,0-0.2-0.1-0.3-0.1l-0.1,0c-0.1-0.1-0.2-0.1-0.4-0.1h0c-0.1,0-0.2-0.1-0.3-0.1h0
		c-0.1-0.1-0.3-0.1-0.5-0.2l-0.1,0c-0.1-0.1-0.3-0.1-0.5-0.1h0c-0.3-0.1-0.5-0.2-0.8-0.3l0,0c-0.3-0.1-0.6-0.2-0.8-0.3l0,0
		c-0.2-0.1-0.3-0.1-0.5-0.1l0,0c-0.7-0.2-1.5-0.4-2.3-0.5l0,0c-0.6-0.1-1.2-0.2-1.8-0.3v19.2c0.2,0.1,0.4,0.1,0.6,0.1
		C30.3,42,41,39.4,41.8,33.2c0.4-3.3-2-6.9-6.1-10c3.3,1.9,6,4.1,7.8,6.4c1,1.4,1.7,2.7,2,4.1c-0.1-1.9-0.9-4.8-2-6.9L43.5,18.5
		L43.5,18.5z"/>
	<g>
		<path class="st2" d="M67.5,26.9c0,1-0.2,2-0.7,2.9c-0.4,0.9-1,1.7-1.8,2.3c-0.8,0.7-1.7,1.2-2.8,1.6c-1.1,0.4-2.2,0.6-3.5,0.6H49
			v-9h4.5v5.3h5.2c0.6,0,1.2-0.1,1.7-0.3c0.5-0.2,1-0.4,1.4-0.7c0.4-0.3,0.7-0.7,0.9-1.1c0.2-0.4,0.3-0.9,0.3-1.4
			c0-0.5-0.1-1-0.3-1.4c-0.2-0.4-0.5-0.8-0.9-1.1c-0.4-0.3-0.8-0.6-1.4-0.7c-0.5-0.2-1.1-0.3-1.7-0.3H49l2.9-3.8h6.8
			c1.3,0,2.4,0.2,3.5,0.5c1.1,0.3,2,0.8,2.8,1.5s1.4,1.4,1.8,2.3C67.2,24.9,67.5,25.8,67.5,26.9z"/>
		<g>
			<path class="st2" d="M82.8,21.4v6.8l-8.9-8c-0.4-0.3-0.7-0.5-1-0.6c-0.3-0.1-0.6-0.1-0.8-0.1c-0.3,0-0.6,0.1-0.9,0.1
				c-0.3,0.1-0.6,0.3-0.8,0.5c-0.2,0.2-0.4,0.5-0.5,0.8c-0.1,0.3-0.2,0.8-0.2,1.2v12h4.1v-8.5l8.9,8c0.3,0.3,0.7,0.5,0.9,0.6
				c0.3,0.1,0.6,0.1,0.8,0.1c0.3,0,0.6-0.1,0.9-0.1c0.3-0.1,0.6-0.3,0.8-0.5c0.2-0.2,0.4-0.5,0.5-0.8c0.1-0.3,0.2-0.8,0.2-1.2V19.9
				L82.8,21.4z"/>
		</g>
		<path class="st2" d="M103,25.5c1.8,0,3.1,0.3,4,1c0.9,0.7,1.4,1.6,1.4,3c0,0.7-0.1,1.4-0.3,2c-0.2,0.6-0.6,1.1-1.1,1.5
			c-0.5,0.4-1.2,0.7-1.9,0.9c-0.8,0.2-1.7,0.3-2.8,0.3H88.7l2.9-3.7h11c0.5,0,0.9-0.1,1.2-0.3c0.3-0.2,0.4-0.4,0.4-0.8
			s-0.1-0.7-0.4-0.8c-0.3-0.2-0.6-0.2-1.2-0.2h-7.9c-0.9,0-1.8-0.1-2.4-0.3c-0.7-0.2-1.2-0.5-1.7-0.8c-0.5-0.4-0.8-0.8-1-1.3
			c-0.2-0.5-0.3-1.1-0.3-1.7c0-0.7,0.1-1.3,0.4-1.9c0.2-0.6,0.6-1,1.1-1.4c0.5-0.4,1.1-0.7,1.9-0.9c0.8-0.2,1.7-0.3,2.8-0.3h12.6
			l-2.9,3.8H95.1c-0.5,0-0.9,0.1-1.2,0.2c-0.3,0.1-0.4,0.4-0.4,0.8c0,0.4,0.1,0.6,0.4,0.8c0.3,0.1,0.6,0.2,1.2,0.2L103,25.5
			L103,25.5z"/>
	</g>
	<g class="st3">
		<path class="st4" d="M57.5,36.6v5h-1.4v-2.7v-0.7l0.1-0.4v-0.4h-0.1l-0.2,0.3l-0.2,0.3l-0.4,0.7l-1.7,2.8h-1.3l-1.7-2.8l-0.4-0.7
			l-0.2-0.3l-0.2-0.3h-0.1l0,0.4v0.4l0.1,0.7v2.7h-1.5v-5h2.4l1.4,2.3l0.4,0.7l0.2,0.3l0.2,0.3H53l0.2-0.3l0.2-0.3l0.4-0.7l1.4-2.3
			L57.5,36.6L57.5,36.6z"/>
		<path class="st4" d="M63.6,40.6h-3.3l-0.5,0.9h-1.6l2.6-5H63l2.6,5H64L63.6,40.6z M63.2,39.9l-1.3-2.6l-1.3,2.6H63.2z"/>
		<path class="st4" d="M66.2,41.6v-5H70c1,0,1.8,0.2,2.2,0.5s0.7,0.8,0.7,1.6c0,0.7,0,1.2-0.1,1.5c0,0.3-0.2,0.6-0.5,0.9
			c-0.3,0.3-1,0.5-2.3,0.5H66.2L66.2,41.6z M67.7,40.7h2.1c0.7,0,1.2-0.1,1.4-0.3s0.3-0.7,0.3-1.4c0-0.7-0.1-1.2-0.3-1.4
			s-0.6-0.3-1.3-0.3h-2.2L67.7,40.7L67.7,40.7z"/>
		<path class="st4" d="M75.3,37.4v1.3h3.6v0.7h-3.6v1.4h3.8v0.8h-5.3v-5h5.3v0.8L75.3,37.4L75.3,37.4z"/>
		<path class="st4" d="M84.4,37.4v1.3H88v0.7h-3.6v1.4h3.8v0.8H83v-5h5.3v0.8L84.4,37.4L84.4,37.4z"/>
		<path class="st4" d="M94,40.6h-3.3l-0.5,0.9h-1.6l2.6-5h2.2l2.6,5h-1.5L94,40.6z M93.7,39.9l-1.3-2.6L91,39.9H93.7z"/>
		<path class="st4" d="M102.4,38.1H101v-0.1c0-0.3-0.1-0.4-0.3-0.5c-0.2-0.1-0.6-0.1-1.2-0.1c-0.7,0-1.2,0-1.4,0.1
			c-0.2,0.1-0.3,0.3-0.3,0.5c0,0.3,0.1,0.5,0.3,0.6s0.8,0.1,1.7,0.1c1.1,0,1.9,0.1,2.2,0.3c0.3,0.2,0.5,0.5,0.5,1.1
			c0,0.7-0.2,1.1-0.6,1.3s-1.2,0.3-2.5,0.3c-1.3,0-2.2-0.1-2.5-0.3c-0.4-0.2-0.6-0.6-0.6-1.2V40h1.4v0.1c0,0.3,0.1,0.5,0.3,0.6
			c0.2,0.1,0.7,0.1,1.5,0.1c0.7,0,1.1,0,1.2-0.1s0.3-0.3,0.3-0.6c0-0.3-0.1-0.4-0.2-0.5c-0.1-0.1-0.4-0.1-0.9-0.1l-0.8,0
			c-1.2,0-2-0.1-2.3-0.3c-0.4-0.2-0.5-0.6-0.5-1.1c0-0.6,0.2-1,0.6-1.2c0.4-0.2,1.2-0.3,2.5-0.3c1.1,0,1.9,0.1,2.3,0.3
			c0.4,0.2,0.6,0.5,0.6,1L102.4,38.1L102.4,38.1z"/>
		<path class="st4" d="M110,36.6l-2.9,3.1v1.9h-1.5v-1.9l-2.8-3.1h1.7l1.2,1.3l0.3,0.4l0.2,0.2l0.2,0.2l0.2-0.2l0.2-0.2l0.3-0.4
			l1.2-1.3H110z"/>
	</g>
</g>
</svg>
