<svg width="512px" height="66px" viewBox="0 0 512 66" version="1.1" xmlns="http://www.w3.org/2000/svg" xmlns:xlink="http://www.w3.org/1999/xlink" preserveAspectRatio="xMidYMid">
    <title>Google Workspace</title>
    <g>
        <path d="M402.551189,18.1987484 C406.566875,18.1987484 409.984481,19.7793909 412.804005,22.9406758 C415.70897,26.1019608 417.161452,29.9467668 417.161452,34.4750939 C417.161452,39.0888611 415.70897,42.9763872 412.804005,46.1376721 C409.984481,49.298957 406.566875,50.8795995 402.551189,50.8795995 L402.423029,50.8795995 C400.201585,50.8795995 398.151022,50.4096788 396.271339,49.4698373 C394.391656,48.5299958 392.981894,47.2483938 392.042053,45.6250313 L391.785732,45.6250313 L392.042053,49.8543179 L392.042053,63.4392991 L386.274844,63.4392991 L386.274844,19.0958698 L391.785732,19.0958698 L391.785732,23.4533166 L392.042053,23.4533166 C392.981894,21.8299541 394.391656,20.5483521 396.271339,19.6085106 C398.151022,18.6686692 400.244305,18.1987484 402.551189,18.1987484 Z M369.870338,18.0705882 C372.604422,18.0705882 375.082186,18.7541093 377.30363,20.1211514 C379.525073,21.4881936 381.062995,23.1969962 381.917397,25.2475594 L376.790989,27.4262829 C376.212441,26.1204904 375.222116,25.0401357 373.971464,24.350438 C372.590822,23.6245279 371.044767,23.2711439 369.485857,23.3251564 C368.048397,23.2628007 366.623734,23.6189665 365.384731,24.350438 C364.188569,25.1193992 363.590488,26.0592407 363.590488,27.1699625 C363.590488,28.9642053 365.256571,30.2030872 368.588736,30.8866083 L373.202503,32.1682103 C379.354193,33.6206925 382.430038,36.6965373 382.430038,41.3957447 C382.430038,44.0443888 381.276596,46.3085524 378.969712,48.1882353 C376.662829,50.0679182 373.672424,50.9650396 369.998498,50.8795995 C366.922653,50.8795995 364.231289,50.0679182 361.924406,48.4445557 C359.652668,46.9145425 357.907438,44.7218174 356.926158,42.1647059 L362.052566,39.9859825 C362.821527,41.7802253 363.889529,43.1899875 365.256571,44.2152691 C366.631317,45.223303 368.293806,45.7624887 369.998498,45.7531915 C371.878181,45.7531915 373.416103,45.3687109 374.612265,44.5997497 C375.808427,43.8307885 376.449228,42.890947 376.534668,41.7802253 C376.534668,39.8151022 375.039466,38.3626199 372.049061,37.4227785 L366.666333,36.1411765 C360.685524,34.6032541 357.695119,31.6982895 357.695119,27.4262829 C357.695119,24.6067584 358.848561,22.3425949 361.155444,20.6337922 C363.462328,18.9249896 366.367292,18.0705882 369.870338,18.0705882 Z M288.744931,18.1987484 C293.358698,18.1987484 297.118064,19.7366708 300.023029,22.8125156 C303.013433,25.8883605 304.508636,29.7758865 304.508636,34.4750939 C304.508636,39.2597413 303.013433,43.1899875 300.023029,46.2658323 C297.032624,49.3416771 293.273258,50.8795995 288.744931,50.8795995 C284.216604,50.8795995 280.414518,49.3416771 277.338673,46.2658323 C274.348269,43.1899875 272.853066,39.2597413 272.853066,34.4750939 C272.853066,29.7758865 274.348269,25.8883605 277.338673,22.8125156 C280.329078,19.7366708 284.131164,18.1987484 288.744931,18.1987484 Z M497.005257,18.1987484 C501.619024,18.1987484 505.250229,19.6512307 507.898874,22.5561952 C510.547518,25.4611598 511.91456,29.6050063 512,34.9877347 L512,35.6285357 L487.777722,35.6285357 C487.863162,38.6189403 488.845724,41.0539841 490.725407,42.9336671 C492.60509,44.81335 494.911973,45.7104714 497.646058,45.6250313 C501.319983,45.6250313 504.224948,43.7880684 506.360951,40.1141427 L511.487359,42.6773467 C510.156404,45.1780226 508.160623,47.2625046 505.72015,48.7008761 C503.327826,50.1533584 500.551022,50.8795995 497.389737,50.8795995 C492.86141,50.8795995 489.144764,49.3416771 486.2398,46.2658323 C483.334835,43.1899875 481.882353,39.2597413 481.882353,34.4750939 C481.882353,29.8613267 483.292115,25.9738006 486.11164,22.8125156 C488.931164,19.6512307 492.56237,18.1133083 497.005257,18.1987484 Z M466.374969,18.1987484 C469.536254,18.1987484 472.270338,18.9677096 474.577222,20.505632 C476.884105,22.0435544 478.635628,24.2222778 479.83179,27.0418023 L474.577222,29.2205257 C472.953859,25.3757196 470.091615,23.4533166 465.990488,23.4533166 C463.341844,23.4533166 461.03496,24.5213183 459.069837,26.6573217 C457.190154,28.793325 456.250313,31.3992491 456.250313,34.4750939 C456.250313,37.5509387 457.190154,40.1995828 459.069837,42.4210263 C461.03496,44.5570296 463.341844,45.6250313 465.990488,45.6250313 C470.177055,45.6250313 473.124739,43.7026283 474.833542,39.8578223 L480.08811,42.0365457 C478.891948,44.8560701 477.097705,47.0347935 474.705382,48.5727159 C472.313058,50.1106383 469.536254,50.8795995 466.374969,50.8795995 C461.761202,50.8795995 457.959116,49.3416771 454.968711,46.2658323 C451.978306,43.1045474 450.483104,39.1743012 450.483104,34.4750939 C450.483104,29.7758865 451.978306,25.8883605 454.968711,22.8125156 C457.959116,19.7366708 461.761202,18.1987484 466.374969,18.1987484 Z M432.925156,18.1987484 C437.197163,18.1987484 440.572048,19.3094702 443.049812,21.5309136 C445.527576,23.7523571 446.766458,26.870922 446.766458,30.8866083 L446.766458,49.8543179 L441.255569,49.8543179 L441.255569,45.6250313 L440.999249,45.6250313 C438.606925,49.1280768 435.40292,50.8795995 431.387234,50.8795995 C428.055069,50.8795995 425.235544,49.897038 422.928661,47.9319149 C420.621777,45.9667918 419.468335,43.4463079 419.468335,40.3704631 C419.468335,37.2091781 420.664497,34.6886942 423.056821,32.8090113 C425.449145,30.9293283 428.69587,29.9894869 432.796996,29.9894869 C436.214602,29.9894869 439.034126,30.5875678 441.255569,31.7837297 L441.255569,30.5021277 C441.255569,28.4515645 440.443888,26.7427618 438.820526,25.3757196 C437.322146,24.0540563 435.393705,23.3254224 433.397737,23.324715 L433.309637,23.3251564 C430.062912,23.3251564 427.499708,24.6921986 425.620025,27.4262829 L420.493617,24.2222778 C423.313141,20.2065916 427.456988,18.1987484 432.925156,18.1987484 Z M223.639549,4.99824781 L233.123404,40.2423029 L233.379725,40.2423029 L243.1199,11.0217772 L248.502628,11.0217772 L258.242804,40.2423029 L258.499124,40.2423029 L267.470338,4.99824781 L273.493867,4.99824781 L261.446809,49.8543179 L255.551439,49.8543179 L245.939424,20.2493116 L245.683104,20.2493116 L235.942929,49.8543179 L230.047559,49.8543179 L217.61602,4.99824781 L223.639549,4.99824781 Z M323.476345,18.1987484 C325.099708,18.1987484 326.50947,18.4550688 327.705632,18.9677096 L325.911389,24.6067584 C325.227868,24.350438 324.117146,24.2222778 322.579224,24.2222778 C320.357781,24.2222778 318.435378,25.0766792 316.812015,26.7854819 C315.188652,28.4942845 314.376971,30.5448477 314.376971,32.9371715 L314.376971,49.8543179 L308.609762,49.8543179 L308.609762,19.0958698 L314.120651,19.0958698 L314.120651,24.2222778 L314.376971,24.2222778 C314.975052,22.5134752 316.213934,21.103713 318.093617,19.9929912 C319.9733,18.8822695 321.767543,18.2841886 323.476345,18.1987484 Z M336.164205,4.99824781 L336.164205,32.6808511 L349.492866,19.0958698 L356.797997,19.0958698 L356.797997,19.3521902 L344.879099,31.2710889 L357.438798,49.5979975 L357.438798,49.8543179 L350.389987,49.8543179 L340.906133,35.3722153 L336.164205,40.1141427 L336.164205,49.8543179 L330.396996,49.8543179 L330.396996,4.99824781 L336.164205,4.99824781 Z M433.694118,34.6032541 C431.387234,34.6032541 429.422111,35.1586149 427.798748,36.2693367 C426.175386,37.3800584 425.406425,38.7898206 425.491865,40.4986233 C425.491865,42.0365457 426.132666,43.2754276 427.414268,44.2152691 C428.69587,45.1551106 430.191072,45.6677514 431.899875,45.7531915 C434.292199,45.7531915 436.428202,44.8560701 438.307885,43.0618273 C440.187568,41.2675845 441.170129,39.1743012 441.255569,36.7819775 C439.461327,35.3294952 436.940843,34.6032541 433.694118,34.6032541 Z M401.525907,23.4533166 C398.706383,23.4533166 396.356779,24.4785982 394.477096,26.5291615 C392.682854,28.6651648 391.785732,31.3138089 391.785732,34.4750939 C391.785732,37.8072591 392.682854,40.4986233 394.477096,42.5491865 C396.356779,44.5997497 398.706383,45.6250313 401.525907,45.6250313 C404.345432,45.6250313 406.695035,44.5997497 408.574718,42.5491865 C410.454401,40.4986233 411.394243,37.8072591 411.394243,34.4750939 C411.394243,31.3138089 410.454401,28.6651648 408.574718,26.5291615 C406.695035,24.3931581 404.345432,23.3678765 401.525907,23.4533166 Z M288.744931,23.4533166 C285.925407,23.4533166 283.533083,24.4785982 281.56796,26.5291615 C279.602837,28.5797247 278.620275,31.2283688 278.620275,34.4750939 C278.620275,37.8072591 279.602837,40.4986233 281.56796,42.5491865 C283.533083,44.5997497 285.925407,45.6250313 288.744931,45.6250313 C291.564456,45.6250313 293.956779,44.5997497 295.921902,42.5491865 C297.887025,40.4986233 298.826867,37.8072591 298.741427,34.4750939 C298.741427,31.2283688 297.801585,28.5797247 295.921902,26.5291615 C293.956779,24.4785982 291.564456,23.4533166 288.744931,23.4533166 Z M496.877096,23.4533166 C494.741093,23.4533166 492.90413,24.0941176 491.366208,25.3757196 C489.828285,26.6573217 488.760284,28.4515645 488.162203,30.7584481 L505.84831,30.7584481 C505.67743,28.6224447 504.823029,26.870922 503.285106,25.5038798 C501.747184,24.1368377 499.611181,23.4533166 496.877096,23.4533166 Z" fill="#5F6368"></path>
        <g>
            <path d="M25.8883605,30.2458073 L25.8883605,23.1969962 L49.2135169,23.1969962 C49.4809619,24.6338092 49.6097139,26.0929982 49.5979975,27.5544431 C49.5979975,32.6808511 48.1882353,39.2170213 43.5744681,43.7026283 C39.0888611,48.4445557 33.4498123,50.8795995 25.7602003,50.8795995 C11.7907384,50.8795995 0,39.4733417 0,25.5038798 C0,11.534418 11.7907384,0 25.7602003,0 C33.5779725,0 39.0888611,3.07584481 43.3181477,7.04881101 L38.3198999,11.9188986 C32.995696,6.83767508 25.1351358,5.46346472 18.4027851,8.43691961 C11.6704344,11.4103745 7.3917548,18.1460824 7.56145181,25.5038798 C7.56145181,35.7566959 15.6355444,43.9589487 25.7602003,43.9589487 C32.4245307,43.9589487 36.2693367,41.2675845 38.7043805,38.8325407 C40.6267835,36.9101377 41.9083855,34.0906133 42.4210263,30.2458073 L25.8883605,30.2458073 Z" fill="#4285F4"></path>
            <path d="M85.098373,34.4750939 C85.098373,43.9589487 77.6650814,50.8795995 68.5657071,50.8795995 C59.4663329,50.8795995 52.1612015,43.9589487 52.1612015,34.4750939 C52.1612015,24.991239 59.5944931,18.0705882 68.5657071,18.0705882 C77.5369212,18.0705882 85.098373,24.991239 85.098373,34.4750939 M77.7932416,34.4750939 C77.7932416,28.5797247 73.5639549,24.6067584 68.5657071,24.6067584 C63.5674593,24.6067584 59.3381727,28.5797247 59.3381727,34.4750939 C59.3381727,40.3704631 63.6956195,44.4715895 68.5657071,44.4715895 C73.4357947,44.4715895 77.7932416,40.3704631 77.7932416,34.4750939" fill="#EA4335"></path>
            <path d="M120.983229,34.4750939 C120.983229,43.9589487 113.549937,50.8795995 104.450563,50.8795995 C95.351189,50.8795995 88.0460576,43.9589487 88.0460576,34.4750939 C88.0460576,24.991239 95.4793492,18.0705882 104.450563,18.0705882 C113.421777,18.0705882 120.983229,24.991239 120.983229,34.4750939 M113.678098,34.4750939 C113.678098,28.5797247 109.448811,24.6067584 104.450563,24.6067584 C99.4523154,24.6067584 95.2230288,28.5797247 95.2230288,34.4750939 C95.2230288,40.3704631 99.5804756,44.4715895 104.450563,44.4715895 C109.320651,44.4715895 113.678098,40.3704631 113.678098,34.4750939" fill="#FBBC04"></path>
            <path d="M155.330163,19.0958698 L155.330163,48.5727159 C155.330163,60.6197747 148.153191,65.6180225 139.694618,65.6180225 C131.748686,65.6180225 127.006758,60.2352941 125.212516,55.8778473 L131.492365,53.3146433 C132.645807,56.0060075 135.337171,59.2100125 139.694618,59.2100125 C145.205507,59.2100125 148.537672,55.7496871 148.537672,49.5979975 L148.537672,47.1629537 L148.281352,47.1629537 C146.073364,49.6358062 142.879495,50.9978974 139.566458,50.8795995 C131.492365,50.8795995 123.930914,43.7026283 123.930914,34.6032541 C123.930914,25.3757196 131.492365,18.0705882 139.566458,18.0705882 C143.539424,18.0705882 146.615269,19.864831 148.281352,21.787234 L148.537672,21.787234 L148.537672,19.0958698 L155.330163,19.0958698 Z M149.050313,34.6032541 C149.050313,28.8360451 145.205507,24.6067584 140.207259,24.6067584 C135.337171,24.6067584 131.107885,28.8360451 131.107885,34.6032541 C131.107885,40.2423029 135.337171,44.4715895 140.207259,44.4715895 C145.205507,44.4715895 149.050313,40.2423029 149.050313,34.6032541" fill="#4285F4"></path>
            <polygon fill="#34A853" points="160.328411 1.922403 167.505382 1.922403 167.505382 49.9824781 160.328411 49.9824781"></polygon>
            <path d="M195.316145,39.8578223 L200.955194,43.7026283 C199.160951,46.2658323 194.803504,50.8795995 187.242053,50.8795995 C177.886358,50.8795995 170.965707,43.7026283 170.965707,34.4750939 C170.965707,24.7349186 178.014518,18.0705882 186.473091,18.0705882 C194.931665,18.0705882 199.160951,24.8630788 200.442553,28.5797247 L201.211514,30.3739675 L179.29612,39.4733417 C180.962203,42.8055069 183.525407,44.4715895 187.242053,44.4715895 C190.958698,44.4715895 193.393742,42.6773467 195.316145,39.8578223 M178.142678,33.9624531 L192.752941,27.9389237 C191.98398,25.8883605 189.548936,24.4785982 186.729412,24.4785982 C183.012766,24.4785982 177.886358,27.6826033 178.142678,33.9624531" fill="#EA4335"></path>
        </g>
    </g>
</svg>
