<svg xmlns="http://www.w3.org/2000/svg" viewBox="0 0 2159 501"><path fill="#F1EFED" d="M614.21 158.547c6.46 5.65 11.345 11.647 16.79 18.453l4-32h31c.046 26.253.082 52.506.104 78.759.01 12.191.024 24.383.047 36.574.02 10.634.033 21.268.037 31.903.003 5.623.009 11.246.023 16.87.014 5.308.018 10.617.015 15.926 0 1.933.005 3.866.012 5.8.037 9.681-.182 19.257-1.12 28.898l-.231 2.41c-2.267 21.01-10.896 41.137-27.44 54.823-26.18 20.615-61.85 23.667-93.974 20.568-25.398-3.021-47.118-12.925-63.848-32.406C471.338 394.208 466 379.724 466 366h35l5 13c8.226 13.71 19.361 20.694 34.645 25.035 21.022 4.655 47.18 4.251 65.812-7.598 13.657-10.05 20.334-23.089 23.073-39.64.47-3.801.584-7.433.568-11.262l-.005-2.055c-.005-2.14-.018-4.278-.03-6.418-.006-1.461-.01-2.923-.014-4.384-.011-3.56-.028-7.119-.049-10.678l-1.37 1.79c-13.35 17.323-29.914 29.013-52.08 31.962-30.036 2.917-58.91-1.822-82.636-21.283C478.397 321.11 468.323 303.659 463 284l-.969-3.527c-4.416-19.81-4.408-44.893.969-64.473l1.031-3.809c7.416-24.476 23.478-45.592 45.844-58.252 30.875-16.328 76-18.748 104.336 4.608ZM514 194l-1.805 1.703c-14.695 15.093-17.638 38.726-17.41 58.633.54 20.01 7.747 38.863 21.465 53.539 16.245 15.171 34.55 17.96 55.813 17.304 16.608-1.013 31.333-9.736 42.382-21.863 14.56-18.187 19.223-41.445 16.93-64.316-2.297-19.27-10.021-38.419-25.043-51.285-29.138-21.987-66.726-19.55-92.332 6.285ZM1972.785 160.164c14.484 12.364 21.496 29.09 23.215 47.836.142 3.484.154 6.965.158 10.452l.015 3.077c.01 2.193.02 4.386.026 6.579.012 3.472.032 6.944.053 10.416.062 9.867.116 19.735.15 29.602.02 6.046.056 12.091.1 18.137.014 2.3.023 4.601.026 6.902.005 3.214.028 6.428.055 9.642l-.009 2.872c.066 5.188.528 8.83 3.426 13.321 3.477 2.779 7.972 2.443 12.25 2.625l7.75.375v32l-12.813.125-3.968.055c-10.879.051-22.747-.202-31.16-7.973-5.835-6.298-8.18-12.97-10.059-21.207l-1.688 1.941c-15.139 17.16-33.36 27.8-56.558 29.264-3.483.098-6.957.124-10.441.108l-3.739-.015c-21.974-.282-42.883-6.198-59.129-21.657-3.592-3.88-6.144-7.898-8.445-12.641l-1.176-2.395c-6.944-15.631-6.337-34.453-.637-50.355 6.524-15.726 18.16-26.393 33.75-32.938 15.222-5.34 30.484-6.908 46.516-6.703 1.765.008 3.53.014 5.295.018 4.57.015 9.14.054 13.71.098 4.694.042 9.387.06 14.081.08 9.154.042 18.307.11 27.461.195-.082-3.626-.195-7.25-.313-10.875l-.068-3.07c-.41-11.641-3.118-21.644-11.588-29.996-13.96-11.71-31.534-13.42-49.031-12.059-12.547 1.665-24.423 6.282-33.21 15.648-4.168 5.477-7.125 11.693-8.79 18.352h-35c1.749-17.486 7.589-30.526 20-43l2.016-2.121c30.963-30.314 95.18-28.037 127.77-2.715ZM1859.09 269.922c-6.644 8.423-8.87 17.718-7.875 28.379 1.907 9.065 6.737 15.535 14.05 20.976 15.22 9.588 34.714 9.047 51.735 5.723 15.917-4.321 28.867-12.401 37.313-26.75 5.467-9.882 6.853-18.504 6.75-29.648l-.014-2.804A1706.86 1706.86 0 0 0 1961 259c-9.685-.07-19.37-.123-29.054-.155-4.498-.016-8.996-.037-13.495-.071-4.35-.033-8.7-.05-13.052-.059-1.65-.005-3.3-.016-4.95-.032-14.358-.137-30.548.362-41.36 11.239ZM1480.813 163.25c19.408 16.976 30.991 41.046 33.187 66.75.98 22.04.98 22.04-1 26h-161c2.556 23.007 6.284 40.766 24.375 56 12.24 9.101 25.435 12.395 40.438 12.313l3.225-.018c15.91-.246 29.143-4.844 40.778-16.014 6.966-7.277 11.725-15.446 14.184-25.281h35c-2.204 19.832-11.038 35.2-25 49l-2.21 2.242c-19.582 18.707-45.654 22.615-71.626 22.106-26.953-.994-51.24-11.725-69.926-31.23-15.746-18.086-25.213-41.817-25.476-65.876l-.03-2.233c-.328-31.046-.328-31.046 4.268-46.009l.633-2.118c4.96-16.014 13.5-29.154 25.367-40.882l2.207-2.238c33.989-32.476 97.06-32.17 132.605-2.512ZM1391 177l-2.832 1.285c-15.862 7.964-26.071 19.944-32.293 36.45-1.203 4.163-1.203 4.163-1.875 12.265h124c-1.75-17.495-7.728-30.424-21.172-41.93-18.068-13.226-45.104-17.56-65.828-8.07ZM874 165c18.801 16.716 28.602 40.083 31.438 64.75l.245 2.067c.73 8.173-.192 15.835-.683 24.183H743c2.952 20.667 6.042 41.554 23.529 55.192 17.291 12.647 36.27 14.759 57.225 12.382 14.035-3.112 26.961-10.85 34.996-22.824 3.594-5.7 5.568-11.314 8.25-17.75h35c-4.259 23.424-15.999 43.841-35.613 57.781-16.8 11.314-35.51 15.624-55.512 15.531-1.281-.005-2.562-.01-3.882-.017-29.91-.382-54.323-10.776-75.321-32.248C709.822 299.99 705.543 267.112 707 236c2.217-28.117 13.638-54.12 35.117-72.754C779.867 133.834 837.27 134.06 874 165Zm-115 29c-8.456 9.94-11.682 20.25-14 33h125c-2.997-17.98-9.237-32.84-24.45-43.758C817.053 165.436 782.06 169.885 759 194ZM1090 67h34l1 108 11-13c20.065-16.686 42.721-22.054 68.474-19.782 10.047 1.174 19.308 3.516 28.526 7.782l2.82 1.27c7.958 3.933 13.956 9.524 20.18 15.73l1.809 1.738c20.317 21.309 19.662 54.7 19.495 81.945-.019 3.646-.02 7.292-.024 10.938-.01 6.87-.034 13.74-.064 20.61a9790.29 9790.29 0 0 0-.065 23.507c-.031 16.088-.086 32.175-.151 48.262h-34l-.06-10.762a26637.34 26637.34 0 0 0-.228-35.347c-.05-7.138-.096-14.276-.134-21.414-.033-6.23-.073-12.459-.12-18.688a3150.44 3150.44 0 0 1-.061-9.874c.217-37.616.217-37.616-17.17-69.88-13.272-12.13-29.642-13.658-46.73-13.167-13.428.71-25.403 7.097-34.958 16.308-18.575 20.66-18.986 47.688-19.05 73.86l-.055 7.729c-.042 6.04-.072 12.082-.095 18.124-.028 6.89-.072 13.78-.117 20.67A18718.64 18718.64 0 0 0 1124 354h-34V67ZM391 166c19.739 17.16 30.757 40.188 34 66 1.793 36.444-3.63 66.431-27.707 95.027-15.913 17.122-41.083 28.147-64.297 29.096-28.72.666-28.72.666-41.996-3.123l-2.057-.586c-24.808-7.302-44.944-23.157-57.654-45.693-15.234-28.264-17.85-62.54-9-93.291 7.702-25.353 23.555-46.356 46.711-59.43 38.732-20.316 88.426-15.928 122 12Zm-118 27-2.137 2.266C260.408 207.294 253.664 225.054 253 241l-.156 3.438c-.669 22.169 4.997 45.16 20.347 61.882 7.373 6.847 15.35 12.23 24.809 15.68l2.512.965c17.257 5.467 36.703 3.154 52.777-4.54 15.934-8.652 27.7-22.872 32.938-40.312 7.072-25.268 5.146-50.879-7.29-74.175C369.41 188.39 354.587 178.471 337 174c-23.114-4.783-47.785 1.587-64 19ZM101 86h34v59h53v31h-53c.063 16.795.138 33.589.236 50.383.045 7.799.084 15.597.11 23.396.023 6.8.057 13.6.103 20.4.024 3.598.042 7.196.049 10.794.007 4.024.037 8.048.07 12.072l-.005 3.585c.086 7.548.326 15.09 5.75 20.808 6.207 3.609 11.895 3.89 18.898 3.976l2.934.059c3.076.06 6.153.106 9.23.152 2.092.038 4.185.077 6.277.117 5.116.098 10.232.177 15.348.258v32c-6.525.07-13.049.129-19.574.165-2.212.015-4.424.035-6.636.061-40.317.466-40.317.466-55.165-12.788-10.601-11.551-11.937-26.34-11.852-41.241v-4.083c-.002-3.665.01-7.33.024-10.994.013-3.841.014-7.682.016-11.523.006-7.26.023-14.52.043-21.78.022-8.27.033-16.542.043-24.813.021-17.001.058-34.003.101-51.004H63v-31h38V86ZM961 86h34v59h53v31h-53c.063 16.5.138 32.998.236 49.497.045 7.662.084 15.324.11 22.986.023 6.682.057 13.364.103 20.046.024 3.534.042 7.068.049 10.603.007 3.956.037 7.913.07 11.87l-.005 3.506c.09 7.863.249 16.959 5.75 23.055 6.303 3.371 11.895 3.764 18.898 3.851l2.934.059c3.076.06 6.153.106 9.23.152 2.092.038 4.185.077 6.277.117 5.116.098 10.232.177 15.348.258v32c-6.543.07-13.085.129-19.629.165-2.219.015-4.437.035-6.656.061-40.811.47-40.811.47-55.453-13.62-10.276-11.838-11.736-27.624-11.603-42.68V293.9c-.002-3.594.016-7.188.037-10.782.019-3.774.02-7.548.024-11.323.01-7.125.034-14.25.064-21.375.034-8.121.05-16.242.065-24.364.031-16.685.086-33.37.151-50.056h-38v-31h38V86ZM1555 145h31l4 28 5.188-5.938c11.257-12.361 24.142-19.695 40.812-22.062 2.09-.077 4.182-.108 6.273-.098l3.154.008 3.948.028L1662 145v33l-10.563.313c-16.059.635-31.373 2.245-43.628 13.687-13.515 14.945-16.91 36.376-17.014 55.74l-.03 3.491a6450.11 6450.11 0 0 0-.081 11.363l-.063 7.902c-.05 6.212-.095 12.424-.138 18.635-.05 7.077-.105 14.153-.16 21.229-.114 14.547-.22 29.093-.323 43.64h-35V145ZM2057 145h34v209h-34V145Z"/><path fill="#217AFF" d="M1740.313 293.813c7.498 6.155 12.256 13.45 13.562 23.125.587 9.242-1.76 17.966-7.598 25.195-5.975 6.438-13.097 10.307-21.906 11.105-9.795.248-17.556-1.584-25.246-7.863-5.62-5.368-9.784-12.759-10.363-20.598-.214-11.05 1.248-19.635 9.043-27.953 12.185-10.125 29.293-12.476 42.507-3.012Z"/><path fill="#F1EFED" d="M2087 67c4.633 4.304 8.654 8.732 9.336 15.172.088 8.071-.073 14.285-5.762 20.348-6.206 5.564-12.086 5.94-20.125 5.78-4.627-.403-7.927-1.211-11.449-4.3-6.096-7.422-7.678-13.5-7-23 1.071-6.181 4.122-9.731 8.965-13.59 7.329-5.078 18.434-5.178 26.035-.41Z"/></svg>