<svg width="3760" height="753" viewBox="0 0 3760 753" fill="none" xmlns="http://www.w3.org/2000/svg">
<path d="M553.632 381.22C533.755 410.306 501.28 450.058 462.327 485.3C411.038 531.702 357.602 562.005 313.064 562.005C214.431 562.005 134 481.453 134 381.502C134 281.552 214.431 201 313.064 201C358.2 201 409.518 229.12 459.031 273.365C497.879 308.079 531.147 348.732 553.632 381.22Z" stroke="white" stroke-width="86"/>
<path d="M599.187 381.097C637.731 435.284 672.832 479.658 709.665 511.711C750.413 547.171 791.204 565.731 839.441 565.731C937.703 565.731 1018 485.272 1018 385.229C1018 285.185 937.703 204.727 839.441 204.727C792.303 204.727 743.893 227.795 697.924 266.716C659.633 299.136 625.717 340.364 599.187 381.097Z" stroke="white" stroke-width="86"/>
<path d="M1356.53 626H1444.97V131.378H1356.53V626ZM1516.44 626H1601.45V415.194C1601.45 397.599 1604.76 382.288 1611.39 369.263C1618.02 356.009 1627.39 345.726 1639.5 338.413C1651.61 330.872 1665.78 327.102 1682 327.102C1706.23 327.102 1724.39 334.186 1736.5 348.354C1748.61 362.293 1754.67 382.174 1754.67 407.996V626H1840.02V390.857C1840.02 348.811 1829.05 315.676 1807.11 291.453C1785.41 267.23 1754.56 255.119 1714.57 255.119C1687.14 255.119 1664.06 260.946 1645.33 272.601C1626.82 284.255 1612.88 299.908 1603.51 319.561H1601.45V262.66H1516.44V626ZM1925.21 626H2010.56V328.473H2081.85V262.66H2008.84V230.439C2008.84 215.586 2012.73 204.389 2020.5 196.848C2028.5 189.307 2040.84 185.536 2057.52 185.536C2062.09 185.536 2066.54 185.765 2070.89 186.222C2075.46 186.45 2079.57 186.793 2083.23 187.25V127.607C2077.97 126.693 2071.11 125.894 2062.66 125.208C2054.43 124.522 2046.09 124.18 2037.64 124.18C2011.36 124.18 1989.99 127.95 1973.54 135.491C1957.09 142.804 1944.86 154.115 1936.86 169.426C1929.09 184.736 1925.21 204.274 1925.21 228.04V262.66H1875.5V328.473H1925.21V626ZM2133.45 626H2218.8V262.66H2133.45V626ZM2175.95 210.559C2189.44 210.559 2200.75 205.988 2209.89 196.848C2219.03 187.707 2223.6 176.738 2223.6 163.941C2223.6 150.916 2219.03 139.947 2209.89 131.035C2200.75 121.895 2189.44 117.324 2175.95 117.324C2162.7 117.324 2151.5 121.895 2142.36 131.035C2133.22 139.947 2128.65 150.916 2128.65 163.941C2128.65 176.738 2133.22 187.707 2142.36 196.848C2151.5 205.988 2162.7 210.559 2175.95 210.559ZM2426.36 633.198C2456.06 633.198 2482.34 628.514 2505.19 619.145C2528.27 609.547 2546.33 596.179 2559.35 579.04C2572.38 561.673 2578.89 541.563 2578.89 518.712V518.369C2578.89 492.09 2570.89 471.181 2554.9 455.642C2538.9 439.874 2512.05 427.763 2474.34 419.308L2414.02 405.939C2401.45 402.969 2391.39 399.541 2383.85 395.656C2376.31 391.543 2370.83 386.744 2367.4 381.26C2363.97 375.775 2362.26 369.605 2362.26 362.75V362.407C2362.26 353.495 2364.66 345.726 2369.46 339.099C2374.48 332.472 2381.57 327.33 2390.71 323.674C2400.08 320.018 2411.04 318.189 2423.61 318.189C2443.49 318.189 2459.15 322.988 2470.57 332.586C2482 341.955 2488.63 353.952 2490.45 368.577L2490.8 371.319H2570.32L2569.98 367.549C2569.06 346.525 2562.67 327.559 2550.78 310.648C2539.13 293.738 2522.56 280.256 2501.08 270.201C2479.6 260.146 2453.78 255.119 2423.61 255.119C2394.59 255.119 2369.11 259.804 2347.17 269.173C2325.24 278.542 2308.21 291.567 2296.1 308.249C2283.99 324.931 2277.93 344.354 2277.93 366.521V366.863C2277.93 384.916 2281.82 400.798 2289.59 414.509C2297.36 427.991 2309.01 439.303 2324.55 448.443C2340.09 457.584 2359.4 464.782 2382.48 470.038L2442.81 483.406C2461.78 487.748 2474.92 493.347 2482.23 500.202C2489.54 506.829 2493.2 515.513 2493.2 526.253V526.596C2493.2 535.508 2490.45 543.277 2484.97 549.904C2479.71 556.531 2472.17 561.559 2462.35 564.986C2452.52 568.414 2440.64 570.128 2426.7 570.128C2404.99 570.128 2388.08 565.786 2375.97 557.103C2364.09 548.419 2356.54 536.193 2353.34 520.426L2352.66 517.341H2268.68L2269.02 520.426C2271.76 542.82 2279.42 562.587 2291.99 579.726C2304.79 596.636 2322.38 609.775 2344.78 619.145C2367.4 628.514 2394.59 633.198 2426.36 633.198ZM2628.77 626H2714.12V262.66H2628.77V626ZM2671.27 210.559C2684.76 210.559 2696.07 205.988 2705.21 196.848C2714.35 187.707 2718.92 176.738 2718.92 163.941C2718.92 150.916 2714.35 139.947 2705.21 131.035C2696.07 121.895 2684.76 117.324 2671.27 117.324C2658.02 117.324 2646.82 121.895 2637.68 131.035C2628.54 139.947 2623.97 150.916 2623.97 163.941C2623.97 176.738 2628.54 187.707 2637.68 196.848C2646.82 205.988 2658.02 210.559 2671.27 210.559ZM2940.19 633.198C2970.81 633.198 2997.66 627.371 3020.74 615.717C3043.82 603.834 3062.21 587.838 3075.92 567.729C3089.64 547.619 3097.63 524.996 3099.92 499.859L3100.26 497.46H3019.71L3019.02 500.545C3015.14 519.512 3006.46 534.937 2992.97 546.819C2979.72 558.474 2962.24 564.301 2940.53 564.301C2922.71 564.301 2907.05 559.616 2893.57 550.247C2880.32 540.649 2869.92 526.938 2862.38 509.114C2855.06 491.29 2851.41 469.81 2851.41 444.673V444.33C2851.41 419.422 2855.06 398.056 2862.38 380.231C2869.69 362.407 2879.97 348.696 2893.23 339.099C2906.71 329.272 2922.36 324.359 2940.19 324.359C2962.81 324.359 2980.63 330.644 2993.66 343.212C3006.91 355.552 3015.25 370.52 3018.68 388.115L3019.37 390.857H3099.58V388.458C3097.75 364.235 3090.21 342.069 3076.95 321.96C3063.7 301.851 3045.42 285.74 3022.11 273.629C2998.8 261.289 2971.15 255.119 2939.16 255.119C2903.97 255.119 2873.23 262.774 2846.95 278.085C2820.9 293.396 2800.68 315.219 2786.28 343.555C2771.88 371.662 2764.69 405.025 2764.69 443.645V443.987C2764.69 482.835 2771.77 516.427 2785.94 544.763C2800.34 573.099 2820.67 594.922 2846.95 610.232C2873.23 625.543 2904.31 633.198 2940.19 633.198ZM3251.6 632.17C3267.6 632.17 3282.57 629.656 3296.51 624.629C3310.67 619.602 3323.24 612.403 3334.21 603.034C3345.18 593.665 3354.09 582.696 3360.95 570.128H3363V626H3448.01V376.118C3448.01 351.667 3441.84 330.415 3429.5 312.362C3417.39 294.31 3400.14 280.256 3377.74 270.201C3355.58 260.146 3329.3 255.119 3298.91 255.119C3268.28 255.119 3241.78 260.032 3219.38 269.858C3197.22 279.685 3179.85 293.167 3167.28 310.306C3154.71 327.216 3147.51 346.411 3145.69 367.892L3145.34 372.005H3224.18L3224.87 368.92C3227.84 355.438 3235.38 344.469 3247.49 336.014C3259.6 327.33 3275.71 322.988 3295.82 322.988C3317.53 322.988 3334.1 328.358 3345.52 339.099C3357.18 349.61 3363 364.007 3363 382.288V491.29C3363 505.687 3359.23 518.598 3351.69 530.023C3344.15 541.449 3333.87 550.476 3320.84 557.103C3308.05 563.729 3293.42 567.043 3276.97 567.043C3258.23 567.043 3243.15 562.815 3231.72 554.36C3220.53 545.677 3214.93 533.908 3214.93 519.055V518.712C3214.93 504.315 3220.53 492.775 3231.72 484.092C3242.92 475.408 3259.03 470.381 3280.05 469.01L3406.88 461.126V404.568L3268.06 413.138C3238.81 414.966 3213.9 420.45 3193.33 429.591C3172.77 438.503 3157 450.729 3146.03 466.268C3135.29 481.578 3129.92 500.088 3129.92 521.797V522.482C3129.92 543.963 3134.95 563.044 3145 579.726C3155.28 596.179 3169.57 609.09 3187.85 618.459C3206.36 627.6 3227.61 632.17 3251.6 632.17ZM3512.63 626H3597.98V131.378H3512.63V626Z" fill="white"/>
</svg>
